<?xml version="1.0" standalone="no"?>
<!DOCTYPE svg PUBLIC "-//W3C//DTD SVG 1.1//EN" "http://www.w3.org/Graphics/SVG/1.1/DTD/svg11.dtd" >
<svg xmlns="http://www.w3.org/2000/svg">
<metadata>
Created by FontForge 20120731 at Thu Aug 11 10:54:45 2016
 By admin
</metadata>
<defs>
<font id="iconfont" horiz-adv-x="1024" >
  <font-face 
    font-family="iconfont"
    font-weight="500"
    font-stretch="normal"
    units-per-em="1024"
    panose-1="2 0 6 3 0 0 0 0 0 0"
    ascent="896"
    descent="-128"
    x-height="792"
    bbox="-0.793104 -207 1031.5 896.286"
    underline-thickness="50"
    underline-position="-100"
    unicode-range="U+0078-E673"
  />
<missing-glyph horiz-adv-x="374" 
d="M34 0v682h272v-682h-272zM68 34h204v614h-204v-614z" />
    <glyph glyph-name=".notdef" horiz-adv-x="374" 
d="M34 0v682h272v-682h-272zM68 34h204v614h-204v-614z" />
    <glyph glyph-name=".null" horiz-adv-x="0" 
 />
    <glyph glyph-name="nonmarkingreturn" horiz-adv-x="341" 
 />
    <glyph glyph-name="x" unicode="x" horiz-adv-x="1001" 
d="M281 543q-27 -1 -53 -1h-83q-18 0 -36.5 -6t-32.5 -18.5t-23 -32t-9 -45.5v-76h912v41q0 16 -0.5 30t-0.5 18q0 13 -5 29t-17 29.5t-31.5 22.5t-49.5 9h-133v-97h-438v97zM955 310v-52q0 -23 0.5 -52t0.5 -58t-10.5 -47.5t-26 -30t-33 -16t-31.5 -4.5q-14 -1 -29.5 -0.5
t-29.5 0.5h-32l-45 128h-439l-44 -128h-29h-34q-20 0 -45 1q-25 0 -41 9.5t-25.5 23t-13.5 29.5t-4 30v167h911zM163 247q-12 0 -21 -8.5t-9 -21.5t9 -21.5t21 -8.5q13 0 22 8.5t9 21.5t-9 21.5t-22 8.5zM316 123q-8 -26 -14 -48q-5 -19 -10.5 -37t-7.5 -25t-3 -15t1 -14.5
t9.5 -10.5t21.5 -4h37h67h81h80h64h36q23 0 34 12t2 38q-5 13 -9.5 30.5t-9.5 34.5q-5 19 -11 39h-368zM336 498v228q0 11 2.5 23t10 21.5t20.5 15.5t34 6h188q31 0 51.5 -14.5t20.5 -52.5v-227h-327z" />
    <glyph glyph-name="uniE600" unicode="&#xe600;" 
d="M648 383l-407 407q-15 15 -15 36.5t15.5 37t37 15.5t36.5 -15l481 -481l-481 -481q-15 -15 -36.5 -15t-37 15.5t-15.5 37t15 36.5z" />
    <glyph glyph-name="uniE601" unicode="&#xe601;" 
d="M370 383l406 407q16 15 16 36.5t-15.5 37t-37 15.5t-36.5 -15l-481 -481l481 -481q15 -15 36.5 -15t37 15.5t15.5 37t-16 36.5z" />
    <glyph glyph-name="uniE602" unicode="&#xe602;" horiz-adv-x="1025" 
d="M518 393l-182 67l210 85q8 3 11 12q12 30 -1 52q-11 17 -35 19q-4 0 -9 -2l-296 -118q-13 -5 -29 -19q1 14 -12 21l-84 41l427 156l425 -156zM92 56l-38 25zM1011 571l-486 178q-7 3 -14 0l-481 -176q-13 -5 -14 -19t12 -20l97 -46q-33 -40 -34 -128q-27 -19 -28 -45
q-2 -31 29 -60q-5 -28 -16.5 -55.5t-21.5 -44.5t-23 -34t-16.5 -21t-7.5 -8q-8 -7 -7 -17t10 -16l69 -45q5 -3 11 -3q4 0 7 1q30 11 49.5 38t27 56t9.5 65t0.5 57.5t-4.5 40.5q21 27 17 54q-2 20 -18 35q1 25 6.5 45.5t12.5 31.5t15.5 19.5t12.5 11t7 3.5l289 115
q0 -2 -1 -4l-249 -101q-14 -5 -13.5 -19.5t13.5 -19.5l240 -90q7 -2 14 0l486 181q13 5 13 20t-13 20v0zM1011 571zM821 231q-2 -4 -6.5 -8.5t-17.5 -13.5t-31 -17.5t-50.5 -19t-72.5 -18.5q-13 -2 -29 -4t-67 -3.5t-94.5 3t-95.5 21t-85 44.5q17 34 11 64q-6 28 -30 48v26
l280 -93q6 -2 13 0l275 93v-122v0zM854 400q-8 6 -19 2l-296 -100l-300 101q-11 3 -19.5 -3.5t-8.5 -16.5v-67q0 -12 10 -18q17 -11 20 -27q5 -23 -13 -48q-10 -14 2 -27q92 -92 300 -92q68 0 120 9q54 10 94.5 24.5t61.5 27t35 25.5t17.5 20t4.5 13v4v156q0 10 -9 17v0z
M854 400z" />
    <glyph glyph-name="uniE603" unicode="&#xe603;" 
d="M903 716q-61 56 -187 56q-90 0 -194 -32q-3 -1 -4 -1l-5 -2q-135 -41 -211 -106.5t-91 -126.5q-7 -40 10 -60q10 -12 27 -12q34 0 96 50q2 0 3 1q3 2 3 5q2 49 43 90q-15 -59 -16 -99q0 -5 5 -6q34 -5 53 -5q80 0 115 79v3l-3 92l45 -75l2 -2q39 -24 76 -24q51 0 109 54
q3 4 0 8q-22 32 -68 72q57 -11 86 -50q2 -2 5 -2h2q25 -2 36 -1q74 0 86 30q6 13 -0.5 29.5t-12.5 23.5t-10 11zM903 716zM538 764q-3 11 -13 16.5t-21 2t-16 -13.5t-2 -20zM538 764zM619 488q-3 9 -11.5 13.5t-17.5 2t-13.5 -11t-2.5 -18.5l146 -473q5 -17 22 -17q3 0 7 1
q9 3 13.5 11.5t1.5 18.5zM619 488zM391 60q22 -4 44 -4q32 0 66 8l91 -70q5 -4 11 -4q16 0 21 7q4 6 3.5 13t-6.5 12l-73 56q9 4 18 8.5t15.5 8.5t12.5 8t10 7.5t7 6t5 5.5l2 2q7 6 8 15.5t-6 16.5q-6 8 -15.5 8.5t-17.5 -5.5q-1 -1 -8 -7l-82 -29l-354 269l1 -1l2 -1
q-4 7 -14 11t-18 2q-9 1 -15 -6.5t-3 -15.5q0 -5 2 -9q95 -229 231 -291l-178 -54q-7 -2 -10.5 -9.5t-1.5 -14.5q5 -16 17 -16zM389 108q-122 28 -214 208l265 -205l-24 -7q-15 1 -27 4zM389 108z" />
    <glyph glyph-name="uniE604" unicode="&#xe604;" 
d="M511 248l407 407q15 15 36.5 15t37 -15.5t15.5 -37t-15 -36.5l-481 -481l-481 481q-15 15 -15 36.5t15.5 37t37 15.5t36.5 -15z" />
    <glyph glyph-name="uniE605" unicode="&#xe605;" 
d="M511 526l407 -406q15 -16 36.5 -16t37 15.5t15.5 37t-15 36.5l-481 481l-481 -481q-15 -15 -15 -36.5t15.5 -37t37 -15.5t36.5 16z" />
    <glyph glyph-name="uniE606" unicode="&#xe606;" 
d="M485 777q-20 0 -40 -17l-221 -187h-98q-33 0 -56.5 -24t-23.5 -57v-216q0 -33 23.5 -57t56.5 -24h98l221 -187q20 -17 40 -17q23 0 36 19q10 15 10 37v674q0 27 -13.5 41.5t-32.5 14.5zM477 51zM641 127q-8 0 -14 4q-9 6 -11.5 17t3.5 20l305 461q6 10 16.5 12t19.5 -4
t11.5 -17t-3.5 -20l-305 -461q-8 -12 -22 -12zM952 131q-14 0 -22 11l-317 453q-6 9 -4 20t11 17t19.5 4.5t17.5 -10.5l317 -453q6 -9 4 -20t-11 -17q-7 -5 -15 -5z" />
    <glyph glyph-name="uniE607" unicode="&#xe607;" 
d="M915 669h-806q-19 0 -32 -13t-13 -31.5t13 -32t32 -13.5h806q19 0 32 13.5t13 32t-13 31.5t-32 13zM544 429q-13 13 -32 13t-32 -13l-380 -380q-13 -13 -13 -32t13 -32t31.5 -13t32.5 13l348 349q348 -348 348 -349q13 -13 32 -13t32 13t13 32t-13 32z" />
    <glyph glyph-name="uniE608" unicode="&#xe608;" 
d="M872 792h-720q-37 0 -63.5 -26.5t-26.5 -63.5v-495q0 -37 26.5 -63.5t63.5 -26.5h45v-135l169 135h506q37 0 63.5 26.5t26.5 63.5v495q0 37 -26.5 63.5t-63.5 26.5zM782 297h-540v45h540v-45zM782 432h-540v45h540v-45zM782 567h-540v45h540v-45z" />
    <glyph glyph-name="uniE609" unicode="&#xe609;" 
d="M788 844h-552q-38 0 -65 -27t-27 -65v-736q0 -38 27 -65t65 -27h552q38 0 65 27t27 65v736q0 38 -27 65t-65 27v0zM236 752h230v-368l-115 69l-115 -69v368zM236 752z" />
    <glyph glyph-name="uniE60A" unicode="&#xe60a;" 
d="M512 832q-185 0 -316.5 -131.5t-131.5 -316.5t131.5 -316.5t316.5 -131.5t316.5 131.5t131.5 316.5t-131.5 316.5t-316.5 131.5zM695 246q9 -9 9 -22.5t-9.5 -23t-22.5 -9.5t-23 10l-137 138l-138 -137q-10 -9 -23 -9t-22.5 9.5t-9.5 22.5t10 23l138 136l-138 138
q-9 9 -9 22.5t9.5 23t22.5 9.5t23 -10l137 -138l138 137q10 9 23 9t22.5 -9.5t9.5 -22.5t-10 -23l-138 -136z" />
    <glyph glyph-name="uniE60B" unicode="&#xe60b;" 
d="M894 575l-382 -382l-382 382h764zM894 575z" />
    <glyph glyph-name="uniE60C" unicode="&#xe60c;" 
d="M63 739v-66h106l354 -644l363 644h75v66h-136l-231 -387l-217 387h-314zM63 739z" />
    <glyph glyph-name="uniE60D" unicode="&#xe60d;" 
d="M885 673l-83 82l-289 -289l-290 291l-83 -82l291 -291l-290 -290l82 -82l290 289l289 -289l83 83l-289 289z" />
    <glyph glyph-name="uniE60E" unicode="&#xe60e;" 
d="M1024 599q-1 17 -11 35t-27 28q-23 13 -77 33v66q0 32 -23 55t-55 23h-173q-32 0 -55 -23t-23 -55v-57q-1 0 -3 -1h-2q-48 -15 -66 -22q-103 50 -213 50q-51 0 -100 -10t-84 -25t-51.5 -24t-26.5 -16q-34 -23 -34 -64v-585q0 -38 30 -61t67 -15q115 29 234 29
q77 0 158 -26q14 -5 26 -5q11 0 24 4q109 31 181 31q66 0 176 -24q10 -2 17 -4q19 -4 33 -4q24 0 41 11q37 25 37 67v584v5zM640 761q0 7 5 12.5t13 5.5h173q7 0 12.5 -5.5t5.5 -12.5v-435l-60 29q-44 20 -89 0l-60 -30v436zM954 -6q-2 -1 -8 -1q-8 0 -21 3q-5 0 -16 3
q-116 25 -189 25q-78 0 -198 -33q-8 -2 -15 0q-90 29 -176 29q-56 0 -120.5 -8t-90.5 -13.5t-38 -8.5q-8 -2 -15 3q-7 6 -7 14v585q0 9 8 14q14 10 35 21t78 27.5t115 16.5q103 0 199 -50l14 -7l14 8q11 5 57 19v-413l146 73q19 8 37 0l146 -72v402q31 -12 46 -21
q7 -5 9 -15v-585q0 -10 -10 -16zM405 491h-224q-11 0 -19.5 -8t-8.5 -19.5t8.5 -19.5t19.5 -8h224q11 0 19.5 8t8.5 19.5t-8.5 19.5t-19.5 8zM405 376h-224q-11 0 -19.5 -8t-8.5 -19.5t8.5 -20t19.5 -8.5h224q11 0 19.5 8.5t8.5 20t-8.5 19.5t-19.5 8zM405 263h-224
q-11 0 -19.5 -8t-8.5 -19.5t8.5 -19.5t19.5 -8h224q11 0 19.5 8t8.5 19.5t-8.5 19.5t-19.5 8z" />
    <glyph glyph-name="uniE60F" unicode="&#xe60f;" 
d="M351 418h84v-84h-84v84zM351 586h84v-84h-84v84zM155 586h84v-84h-84v84zM155 754h84v-84h-84v84zM351 82h84v-83h-84v83zM351 250h84v-84h-84v84zM155 418h84v-84h-84v84zM351 754h84v-84h-84v84zM155 250h84v-84h-84v84zM829 418h84v-84h-84v84zM155 82h84v-83h-84v83z
M829 82h84v-83h-84v83zM829 250h84v-84h-84v84zM633 82h84v-83h-84v83zM633 250h84v-84h-84v84zM633 418h84v-84h-84v84zM1022 493q-1 36 -26.5 60.5t-60.5 24.5l-349 1v221q0 36 -25.5 61.5t-61.5 25.5h-412q-36 0 -61.5 -25.5t-25.5 -61.5l1 -842q0 -31 25 -54t61 -23h850
q36 0 61.5 25.5t25.5 61.5zM61 -41l-1 841q0 10 8 18t18 8h1h412q11 0 19 -7.5t8 -18.5v-225v-633h-439q-9 0 -17.5 5t-8.5 12zM937 -58h-351v576h349q10 0 18 -7.5t8 -17.5l3 -525q0 -11 -8 -18.5t-19 -7.5z" />
    <glyph glyph-name="uniE610" unicode="&#xe610;" 
d="M2 -128v439q-3 95 27 179q30 83 84.5 146t130.5 105q77 42 165 53v-190q-109 -37 -149 -110t-40 -180h189v-442h-407zM613 -128v439q-3 95 28 179q30 83 84 146q55 63 131 105t165 53v-190q-109 -37 -149 -110t-40 -180h189v-442h-408z" />
    <glyph glyph-name="uniE611" unicode="&#xe611;" 
d="M512 -64q-185 0 -316.5 131.5t-131.5 316.5t131.5 316.5t316.5 131.5t316.5 -131.5t131.5 -316.5t-131.5 -316.5t-316.5 -131.5zM512 768q-104 0 -192.5 -51.5t-140 -140t-51.5 -192.5t51.5 -192.5t140 -140t192.5 -51.5t192.5 51.5t140 140t51.5 192.5t-51.5 192.5
t-140 140t-192.5 51.5zM557 383l138 136q10 10 10 23t-9.5 22.5t-22.5 9.5t-23 -9l-138 -137l-137 137q-9 9 -22 9t-22.5 -9t-9.5 -22.5t9 -22.5l136 -137l-137 -136q-9 -9 -9.5 -22.5t9 -23t22.5 -9.5q14 0 23 10l138 136l138 -140q10 -9 23 -9t22.5 9.5t9.5 22.5t-9 23z
" />
    <glyph glyph-name="uniE612" unicode="&#xe612;" 
d="M512 830q-91 0 -173.5 -35.5t-142 -95t-95 -142t-35.5 -173.5t35.5 -173.5t95 -142t142 -95t173.5 -35.5t173.5 35.5t142 95t95 142t35.5 173.5t-35.5 173.5t-95 142t-142 95t-173.5 35.5zM544 160q0 -13 -9.5 -22.5t-22.5 -9.5t-22.5 9.5t-9.5 22.5v288q0 13 9.5 22.5
t22.5 9.5t22.5 -9.5t9.5 -22.5v-288zM512 544q-20 0 -34 14t-14 34t14 34t34 14t34 -14t14 -34t-14 -34t-34 -14z" />
    <glyph glyph-name="uniE613" unicode="&#xe613;" 
d="M512 -62q-91 0 -173.5 35.5t-142 95t-95 142t-35.5 173.5t35.5 173.5t95 142t142 95t173.5 35.5t173.5 -35.5t142 -95t95 -142t35.5 -173.5t-35.5 -173.5t-95 -142t-142 -95t-173.5 -35.5zM512 766q-104 0 -192 -51t-139 -139t-51 -192t51 -192t139 -139t192 -51t192 51
t139 139t51 192t-51 192t-139 139t-192 51zM464 592q0 -20 14 -34t34 -14t34 14t14 34t-14 34t-34 14t-34 -14t-14 -34zM512 128q-13 0 -22.5 9.5t-9.5 22.5v288q0 13 9.5 22.5t22.5 9.5t22.5 -9.5t9.5 -22.5v-288q0 -13 -9.5 -22.5t-22.5 -9.5z" />
    <glyph glyph-name="uniE614" unicode="&#xe614;" 
d="M593 168q-11 0 -19 8t-8 19v299q0 11 8 19t19.5 8t19.5 -8t8 -19v-299q0 -11 -8 -19t-20 -8zM431 168q-12 0 -20 8t-8 19v299q0 11 8 19t19.5 8t19.5 -8t8 -19v-299q0 -11 -8 -19t-19 -8zM853 620h-131v52q0 33 -23 56t-55 23h-263q-32 0 -55.5 -23t-23.5 -56v-52h-131
q-10 0 -18 -8t-8 -18.5t8 -18.5t18 -8h682q10 0 18 8t8 18.5t-8 18.5t-18 8zM357 672q0 11 7.5 18.5t18.5 7.5h259q10 0 17.5 -7.5t7.5 -18.5v-52h-310v52zM695 17h-366q-33 0 -56 23t-23 56v393q0 11 8.5 18.5t19.5 7.5t19 -7.5t8 -18.5v-391q0 -10 7.5 -18t18.5 -8h362
q11 0 18.5 8t7.5 18v391q0 11 8 18t19.5 7t19.5 -7t8 -18v-393q0 -33 -23 -56t-56 -23zM695 17z" />
    <glyph glyph-name="uniE615" unicode="&#xe615;" 
d="M849 469q-29 116 -124 191t-217 75q-91 0 -170 -43.5t-128 -121.5q-6 -9 -3.5 -20.5t12.5 -17.5t21 -3.5t17 12.5q41 65 107.5 102t143.5 37q99 0 176.5 -59.5t105.5 -151.5h-102l137 -170l137 170h-113zM805 236q-9 6 -20.5 3.5t-17.5 -12.5q-41 -65 -107.5 -102
t-143.5 -37q-99 0 -176.5 59.5t-105.5 151.5h102l-137 170l-137 -170h113q29 -116 124 -191t217 -75q91 0 170 43.5t128 121.5q6 9 3.5 20.5t-12.5 17.5zM805 236z" />
    <glyph glyph-name="uniE616" unicode="&#xe616;" 
d="M799 549v0h-237q-10 0 -17 -7.5t-7 -17.5t6.5 -17t16.5 -7l1 -1h68l-225 -249v452h-180q-11 0 -18 -7.5t-7 -17.5t7 -17.5t18 -7.5h79l1 -556q0 -22 18.5 -28.5t38.5 13.5q10 10 110 115t194 204l94 100h39q11 0 18 7t7 17t-7 17.5t-18 7.5z" />
    <glyph glyph-name="uniE617" unicode="&#xe617;" 
d="M824 696q-63 62 -143.5 95.5t-168.5 33.5t-168.5 -33.5t-143 -96t-96 -143t-33.5 -168.5t33.5 -168.5t96 -143t143 -96t168.5 -33.5t168.5 33.5t143.5 95.5q85 85 115 198.5t0 227t-115 198.5v0zM776 120q-53 -53 -121 -81.5t-143 -28.5t-143 28.5t-121 81.5t-81.5 121
t-28.5 143t28.5 143t81.5 121t121 81.5t143 28.5t143.5 -28.5t120.5 -81.5q72 -71 97.5 -167.5t0 -193t-97.5 -167.5v0zM703 276l-153 88v241q0 15 -10.5 25.5t-26 10.5t-26 -10.5t-10.5 -25.5v-258q0 -15 28 -31q2 -4 16 -12l152 -92q13 -7 26 -3.5t21 17.5q7 13 1.5 27.5
t-18.5 22.5v0zM703 276z" />
    <glyph glyph-name="uniE618" unicode="&#xe618;" 
d="M318 16q-9 0 -18 4q-19 11 -19 32v664q0 21 19.5 31.5t37.5 -0.5l516 -332q17 -11 17 -31t-17 -31l-516 -332q-9 -5 -20 -5zM318 16z" />
    <glyph glyph-name="uniE619" unicode="&#xe619;" 
d="M392 31l314 314q16 16 16 38q0 26 -20 42l-301 302q-16 23 -45 23q-22 0 -38 -15.5t-16 -38.5v-624q0 -23 16 -38.5t38 -15.5q21 0 36 13v0zM392 31z" />
    <glyph glyph-name="uniE61A" unicode="&#xe61a;" 
d="M512 752q-100 0 -185 -49t-134 -134t-49 -185t49 -185t134 -134t185 -49t185 49t134 134t49 185t-49 185t-134 134t-185 49v0zM512 384z" />
    <glyph glyph-name="uniE61B" unicode="&#xe61b;" 
d="M735 741h-119q-15 0 -25 -10.5t-10 -25.5v-642q0 -15 10 -25.5t25 -10.5h119q15 0 25.5 10.5t10.5 25.5v642q0 15 -10.5 25.5t-25.5 10.5zM408 741h-119q-15 0 -25.5 -10.5t-10.5 -25.5v-642q0 -15 10.5 -25.5t25.5 -10.5h119q15 0 25 10.5t10 25.5v642q0 15 -10 25.5
t-25 10.5z" />
    <glyph glyph-name="uniE61C" unicode="&#xe61c;" 
d="M799 721q0 46 -32.5 78t-77.5 32h-355q-45 0 -77 -32t-32 -78v-674q0 -45 32 -77t77 -32h355q45 0 77.5 32t32.5 77v674zM265 659h494v-529h-494v529zM334 791h355q29 0 49.5 -20.5t20.5 -49.5v-22h-494v22q0 29 20 49.5t49 20.5zM689 -23h-355q-29 0 -49 20.5t-20 49.5
v44h494v-44q0 -29 -20.5 -49.5t-49.5 -20.5zM513.5 66q-12.5 0 -21.5 -9t-9 -21.5t9 -21.5t21.5 -9t21 9t8.5 21.5t-8.5 21.5t-21 9z" />
    <glyph glyph-name="uniE61D" unicode="&#xe61d;" 
d="M133 776v-784h758v784h-758zM864 19h-704v730h704v-730zM637 80q7 -7 18 -7t18 7q8 8 8 18.5t-8 18.5l-267 265l266 269q8 8 7.5 18.5t-8 18t-18 7.5t-18.5 -7l-283 -286q-1 -1 -1 -2q-8 -7 -8 -18t8 -19z" />
    <glyph glyph-name="uniE61E" unicode="&#xe61e;" 
d="M133 776v-784h758v784h-758zM160 749h704v-730h-704v730zM387 80q-7 -7 -18 -7t-18 7q-8 8 -8 18.5t8 18.5l267 265l-266 269q-8 8 -7.5 18.5t8 18t18 7.5t18.5 -7l283 -286q1 -1 1 -2q8 -7 8 -18t-8 -19z" />
    <glyph glyph-name="uniE61F" unicode="&#xe61f;" 
d="M512 830q-91 0 -173.5 -35.5t-142 -95t-95 -142t-35.5 -173.5t35.5 -173.5t95 -142t142 -95t173.5 -35.5t173.5 35.5t142 95t95 142t35.5 173.5t-35.5 173.5t-95 142t-142 95t-173.5 35.5zM727 458l-256 -259v-1q-2 -1 -7 -4q-1 -1 -2 -1.5t-2 -1.5q-6 -2 -12 -2t-12 2
q-1 1 -2 1.5t-1 1.5q-6 3 -7 4v1h-1l-126 129q-9 10 -9 23t9.5 22.5t23 9t22.5 -9.5l103 -106l234 236q9 9 22.5 9t22.5 -9t9.5 -22.5t-9.5 -22.5z" />
    <glyph glyph-name="uniE620" unicode="&#xe620;" 
d="M53 844v-920h918v920h-918zM351 80q-8 8 -8 18.5t8 18.5l267 265l-266 269q-8 8 -7.5 18.5t8 18t18 7.5t18.5 -7l283 -286q1 -1 1 -2q8 -7 8 -18t-8 -19l-286 -283q-7 -7 -18 -7t-18 7z" />
    <glyph glyph-name="uniE621" unicode="&#xe621;" 
d="M669 665h84l-162 -163q-8 -7 -8 -18.5t8 -19t19 -7.5t18 7l163 164v-134q0 -8 7 -14t20 -6q26 0 27 20v195v10q0 9 -5 14q-6 6 -13 6h-10h-1h-209q-9 0 -16 -7.5t-7 -20t7 -19.5t16 -7h62zM584 75.5q0 -12.5 7 -19.5t16 -7h209h1h10q8 0 13 6q5 4 5 14v10v204q-1 8 -8 15
t-19.5 7t-19.5 -7t-7 -15v-143l-167 168q-8 7 -19 7t-19 -7.5t-8 -19t8 -18.5l168 -168q-111 -1 -147 0q-9 0 -16 -7t-7 -19.5zM184 55q6 -6 14 -6h9h1h188q9 0 16 7t7 19.5t-7 19.5t-16 7h-126l159 159q8 8 8 19t-7.5 19t-18.5 8t-19 -8l-159 -159v143q0 9 -6.5 15.5
t-20.5 6.5q-26 0 -26 -22v-204l-1 -10q0 -9 5 -14v0zM180 689v-195q0 -8 7 -14t20 -6t19.5 6t6.5 14v133l151 -150q8 -8 19 -8t18.5 7.5t7.5 19t-8 19.5l-150 150h125q9 0 16 7t7 19.5t-7 20t-16 7.5h-199q-7 0 -13 -6q-4 -5 -4 -14v-10zM437 689z" />
    <glyph glyph-name="uniE622" unicode="&#xe622;" 
d="M754 511h-84l162 162q8 8 8 19t-7.5 19t-18.5 8t-19 -8l-163 -163v133q1 9 -6.5 14.5t-20.5 5.5q-26 0 -26 -20v-194v-11q-1 -9 4 -13q6 -7 14 -6h9h1h210q9 0 15.5 7t6.5 19.5t-7 20t-15 7.5h-63zM839 289q0 12 -7 19t-15 7h-210h-1h-10q-8 1 -13 -5q-5 -5 -4 -14v-10
q-1 -153 0 -204q0 -9 7 -15.5t19.5 -6.5t19.5 6.5t7 15.5v142l167 -167q8 -8 19 -8t19 8t8 19t-8 19l-168 168h148q8 0 15 7t7 19zM433 310q-6 6 -14 5h-10h-188q-9 0 -16.5 -7t-7.5 -19t7.5 -19t16.5 -7h126l-160 -159q-8 -8 -8 -19.5t8 -19t19 -7.5t19 8l159 159v-143
q-1 -9 5.5 -15.5t20.5 -6.5q26 0 27 22v204v10q0 9 -4 14zM437 487v194q0 9 -7.5 14.5t-20 5.5t-19 -5.5t-6.5 -14.5v-133l-151 151q-8 8 -19 8t-19 -8t-8 -19t8 -19l150 -150h-124q-9 0 -16.5 -7.5t-7.5 -20t7.5 -19.5t16.5 -7h198q8 -1 14 6q4 4 4 13v11zM437 487z" />
    <glyph glyph-name="uniE623" unicode="&#xe623;" 
d="M512 749q-99 0 -183 -49t-133 -133t-49 -183t49 -183t133 -133t183 -49t183 49t133 133t49 183t-49 183t-133 133t-183 49zM512 65q-132 0 -225.5 93.5t-93.5 225.5t93.5 225.5t225.5 93.5t225.5 -93.5t93.5 -225.5t-93.5 -225.5t-225.5 -93.5z" />
    <glyph glyph-name="uniE624" unicode="&#xe624;" 
d="M512 749q-99 0 -183 -49t-133 -133t-49 -183t49 -183t133 -133t183 -49t183 49t133 133t49 183t-49 183t-133 133t-183 49zM512 65q-132 0 -225.5 93.5t-93.5 225.5t93.5 225.5t225.5 93.5t225.5 -93.5t93.5 -225.5t-93.5 -225.5t-225.5 -93.5zM512 384zM319 384
q0 80 56.5 136.5t136.5 56.5t136.5 -56.5t56.5 -136.5t-56.5 -136.5t-136.5 -56.5t-136.5 56.5t-56.5 136.5z" />
    <glyph glyph-name="uniE625" unicode="&#xe625;" 
d="M512 -64q-185 0 -316.5 131.5t-131.5 316.5t131.5 316.5t316.5 131.5t316.5 -131.5t131.5 -316.5t-131.5 -316.5t-316.5 -131.5zM512 768q-104 0 -192.5 -51.5t-140 -140t-51.5 -192.5t51.5 -192.5t140 -140t192.5 -51.5t192.5 51.5t140 140t51.5 192.5t-51.5 192.5
t-140 140t-192.5 51.5zM727 503q-9 9 -22.5 9t-22.5 -9l-234 -236l-103 106q-9 9 -22.5 9.5t-23 -9t-9.5 -22.5t9 -23l126 -129h1v-1q1 -1 7 -4q0 -1 1 -1.5t2 -1.5q6 -2 12 -2t12 2q1 1 2 1.5t2 1.5q5 3 7 4v1l256 259q10 9 9.5 22.5t-9.5 22.5z" />
    <glyph glyph-name="uniE626" unicode="&#xe626;" 
d="M480 544q-79 0 -135.5 -56.5t-56.5 -135.5t56.5 -135.5t135.5 -56.5t135.5 56.5t56.5 135.5t-56.5 135.5t-135.5 56.5zM480 224q-53 0 -90.5 37.5t-37.5 90.5t37.5 90.5t90.5 37.5t90.5 -37.5t37.5 -90.5t-37.5 -90.5t-90.5 -37.5zM576 64h-416q-13 0 -22.5 9.5
t-9.5 22.5v512q0 13 9.5 22.5t22.5 9.5h96q13 0 22.5 9.5t9.5 22.5t-9.5 22.5t-22.5 9.5h-96q-40 0 -68 -28t-28 -68v-512q0 -40 28 -68t68 -28h416q13 0 22.5 9.5t9.5 22.5t-9.5 22.5t-22.5 9.5zM512 640h320q13 0 22.5 -9.5t9.5 -22.5v-256q0 -13 9.5 -22.5t22.5 -9.5
t22.5 9.5t9.5 22.5v256q0 40 -28 68t-68 28h-320q-13 0 -22.5 -9.5t-9.5 -22.5t9.5 -22.5t22.5 -9.5zM736 560q0 -20 14 -34t34 -14t34 14t14 34t-14 34t-34 14t-34 -14t-14 -34zM320 736h128q13 0 22.5 9.5t9.5 22.5t-9.5 22.5t-22.5 9.5h-128q-13 0 -22.5 -9.5t-9.5 -22.5
t9.5 -22.5t22.5 -9.5zM960 128h-96v96q0 13 -9.5 22.5t-22.5 9.5t-22.5 -9.5t-9.5 -22.5v-96h-96q-13 0 -22.5 -9.5t-9.5 -22.5t9.5 -22.5t22.5 -9.5h96v-96q0 -13 9.5 -22.5t22.5 -9.5t22.5 9.5t9.5 22.5v96h96q13 0 22.5 9.5t9.5 22.5t-9.5 22.5t-22.5 9.5z" />
    <glyph glyph-name="uniE627" unicode="&#xe627;" 
d="M754 524h-18v84q0 92 -63 157q-66 68 -161 68t-160 -65t-65 -160v-84h-17q-47 0 -80.5 -33t-33.5 -80v-358q0 -47 33.5 -80.5t80.5 -33.5h484q47 0 80.5 33.5t33.5 80.5v358q0 47 -33.5 80t-80.5 33zM328 608q0 77 53 130t131 53t131 -54q52 -54 52 -129v-84h-367v84z
M826 53q0 -30 -21 -51t-51 -21h-484q-30 0 -51 21t-21 51v358q0 30 21 51t51 21h484q30 0 51 -21t21 -51v-358zM509.5 316q-8.5 0 -14.5 -6.5t-6 -14.5v-110q0 -8 6 -14t14.5 -6t15 6t6.5 14v110q0 8 -6.5 14.5t-15 6.5z" />
    <glyph glyph-name="uniE628" unicode="&#xe628;" 
d="M832 800h-640q-40 0 -68 -28t-28 -68v-640q0 -40 28 -68t68 -28h640q40 0 68 28t28 68v640q0 40 -28 68t-68 28zM727 458l-256 -259v-1q-2 -1 -7 -4q-1 -1 -2 -1.5t-2 -1.5q-6 -2 -12 -2t-12 2q-1 1 -2 1.5t-1 1.5q-6 3 -7 4v1h-1l-126 129q-9 10 -9 23t9.5 22.5t23 9
t22.5 -9.5l103 -106l234 236q9 9 22.5 9t22.5 -9.5t9.5 -22.5t-9.5 -22z" />
    <glyph glyph-name="uniE629" unicode="&#xe629;" 
d="M832 -32h-640q-40 0 -68 28t-28 68v640q0 40 28 68t68 28h640q40 0 68 -28t28 -68v-640q0 -40 -28 -68t-68 -28zM192 736q-13 0 -22.5 -9.5t-9.5 -22.5v-640q0 -13 9.5 -22.5t22.5 -9.5h640q13 0 22.5 9.5t9.5 22.5v640q0 13 -9.5 22.5t-22.5 9.5h-640z" />
    <glyph glyph-name="uniE62A" unicode="&#xe62a;" 
d="M825 -128h-681q-50 0 -85.5 37.5t-35.5 89.5v731q0 52 35.5 89.5t85.5 37.5h501q15 0 25.5 -10.5t10.5 -25.5t-10.5 -25.5t-25.5 -10.5h-501q-21 0 -35.5 -16t-14.5 -39v-731q0 -23 14.5 -39t35.5 -16h681q21 0 35.5 16t14.5 39v579q0 15 10.5 25.5t25 10.5t25 -10.5
t10.5 -25.5v-579q0 -52 -35.5 -89.5t-85.5 -37.5zM601 459q-15 0 -26 11t-11 26t11 26l364 363q10 11 25.5 11t26 -10.5t10.5 -26t-11 -25.5l-363 -364q-11 -11 -26 -11zM450 459h-220q-15 0 -25.5 11t-10.5 26t10.5 25.5t25.5 10.5h220q15 0 26 -10.5t11 -25.5t-11 -26
t-26 -11zM670 240h-440q-15 0 -25.5 10.5t-10.5 25.5t10.5 26t25.5 11h440q15 0 25.5 -11t10.5 -26t-10.5 -25.5t-25.5 -10.5zM670 240z" />
    <glyph glyph-name="uniE62B" unicode="&#xe62b;" 
d="M515 245q-62 0 -105 40.5t-43 97.5t43 97.5t104.5 40.5t104.5 -40.5t43 -97.5t-43 -97.5t-104 -40.5v0zM906 377v-1q0 -2 -1 -3v-1l-0.5 -0.5t-0.5 -1.5q-53 -112 -159.5 -175.5t-232.5 -63.5t-232.5 63.5t-159.5 175.5q0 1 -0.5 1.5l-0.5 0.5v1v1q-1 0 -1 2v1
q-1 4 -1 6.5t1 6.5v1q0 1 1 2v1l1 1v1q53 113 160.5 177t233.5 64q125 0 231 -64t159 -177v-1l1 -1v-1q1 -1 1 -2v-2q1 -4 1 -6t-1 -6v0zM514 591q-110 0 -204 -54t-142 -154q49 -100 142 -153t202 -53t202.5 53.5t141.5 152.5q-48 100 -141 154t-201 54v0zM514 591z" />
    <glyph glyph-name="uniE62C" unicode="&#xe62c;" 
d="M766 557l-118 117l59 59q15 14 35.5 14t34.5 -14l47 -47q15 -15 15 -35.5t-15 -34.5zM425 216l-117 118l318 316l118 -117zM213 120l72 191l116 -117zM809 80q12 0 21 -8.5t9 -21t-9 -21t-21 -8.5h-594q-12 0 -21 8.5t-9 21t9 21t21 8.5h594zM809 80z" />
    <glyph glyph-name="uniE62D" unicode="&#xe62d;" 
d="M964 554q25 0 42.5 -14.5t17.5 -36.5v-301q0 -21 -17.5 -35.5t-42.5 -14.5h-20q-24 0 -41.5 14.5t-17.5 35.5v301q0 22 17.5 36.5t41.5 14.5h20zM80 554q24 0 40.5 -14.5t16.5 -36.5v-301q0 -21 -16.5 -35.5t-40.5 -14.5h-20q-25 0 -42.5 14.5t-17.5 35.5v301
q0 22 17.5 36.5t42.5 14.5h20zM682 792q19 -8 40 -22.5t41 -34t34.5 -42.5t21.5 -49h-619q17 55 54.5 89.5t76.5 55.5l-57 82q-2 2 -0.5 7t12.5 11q9 7 16 6.5t10 -2.5l57 -83q30 14 64 21t70 7q74 0 138 -29l58 84q2 2 8 2t18 -6q11 -5 12.5 -9t-0.5 -6zM377 704q14 0 24 9
t10 22.5t-10 22.5t-23.5 9t-24 -9t-10.5 -22.5t10.5 -22.5t23.5 -9v0zM646 708q13 0 23 9t10 22.5t-10 22.5t-23.5 9t-24 -9t-10.5 -22.5t10.5 -22.5t24.5 -9v0zM819 580l1 -460q0 -23 -16 -38t-38 -15h-15v-144q0 -20 -16 -35.5t-40 -15.5h-30q-23 0 -39 15.5t-16 35.5v144
h-200v-144q0 -20 -15.5 -35.5t-39.5 -15.5h-31q-22 0 -38 15.5t-16 35.5v144h-12q-22 0 -38 15t-16 38v460h615zM819 580z" />
    <glyph glyph-name="uniE62E" unicode="&#xe62e;" 
d="M897 -128h-770q-55 0 -90.5 33t-35.5 83v23q0 43 27.5 81t71.5 54l194 86q36 11 50 21q5 18 -3 33q-2 2 -12 18q-18 28 -30 48.5t-31 57.5t-29.5 74t-10.5 71q0 93 38 171.5t103 124t141.5 45.5t142 -45.5t103 -124t37.5 -171.5q0 -31 -9 -64.5t-26.5 -68t-29.5 -54
t-31 -48.5q-21 -31 -23 -36q-6 -21 -5 -32q14 -11 43 -22l211 -82q44 -16 72 -54.5t28 -82.5v-23q0 -50 -35.5 -83t-90.5 -33zM315 170l-191 -85q-25 -9 -41.5 -30t-16.5 -44v-23q0 -26 18 -38.5t43 -12.5h770q25 0 43 12.5t18 38.5v23q0 24 -16.5 45.5t-41.5 30.5l-212 82
q-47 18 -67 39q-29 28 -9 95q4 13 30 53q24 36 38.5 59.5t31 65.5t16.5 74q0 114 -63.5 195t-153.5 81t-153.5 -81t-63.5 -195q0 -77 90 -216q12 -17 15 -23q12 -24 10.5 -56t-15.5 -49q-20 -22 -79 -41z" />
    <glyph glyph-name="uniE62F" unicode="&#xe62f;" 
d="M840 222q42 -59 96 -77q-23 -73 -75 -152q-79 -120 -156 -120q-29 0 -86 20q-52 19 -91.5 19t-86.5 -20q-50 -20 -81 -20q-93 0 -183 158q-89 155 -89 306q0 139 68 227q70 89 173 89q22 0 50 -5.5t58 -21.5q32 -17 52.5 -24t31.5 -7q14 0 41.5 6.5t55.5 22.5
q30 16 51.5 24.5t44.5 8.5q72 0 130 -39q31 -21 63 -61q-48 -41 -69 -72q-41 -58 -41 -126q0 -75 43 -136zM633 703q-37 -34 -66 -44q-11 -3 -27 -6q-16 -2 -36 -4q1 90 47.5 156t152.5 91q2 -10 3 -14v-12q0 -37 -18 -83t-56 -84zM633 703z" />
    <glyph glyph-name="uniE630" unicode="&#xe630;" horiz-adv-x="1025" 
d="M541 355q62 37 99 103t37 144q0 117 -77 199.5t-185.5 82.5t-185.5 -82.5t-77 -199.5q0 -78 37 -144t98 -103q-115 -38 -191 -145q-45 -63 -70.5 -141.5t-25.5 -154.5q0 -12 9 -21t21.5 -9t21.5 9t9 21q0 59 21 129.5t64 131.5q100 139 268 139q70 0 130 -26t100.5 -68
t69 -95t42 -107t13.5 -104q0 -12 9 -21t21.5 -9t21.5 9t9 21q0 61 -18 126t-52 127.5t-91.5 113t-127.5 74.5zM213 602q0 91 59 156t142.5 65t142.5 -65t59 -156t-59 -155.5t-142.5 -64.5t-142.5 64.5t-59 155.5zM966 229q-54 93 -171 146q123 93 111 223q-4 47 -23.5 86
t-41 61t-48.5 39t-39 21.5t-19 6.5q-13 4 -24 -2.5t-14.5 -18.5t2.5 -23t18 -15q6 -2 14.5 -5.5t29 -16t36.5 -29t30.5 -46t17.5 -63.5q3 -36 -9.5 -69.5t-29.5 -54.5t-41 -39.5t-34.5 -24.5t-17.5 -9q-20 -9 -18 -31t24 -27q5 -1 15 -4t35.5 -14.5t49 -26t50 -40
t44.5 -54.5q22 -40 34.5 -89t14 -68.5t1.5 -30.5q-1 -12 8 -21.5t22 -9.5v0q13 0 22 8.5t9 21.5q0 14 -1 36.5t-15.5 79.5t-41.5 103z" />
    <glyph glyph-name="uniE631" unicode="&#xe631;" horiz-adv-x="1030" 
d="M349 460.5q0 6.5 4 10.5q11 11 22 0l142 -142l142 142q11 11 22 0.5t0 -21.5l-153 -153q-11 -11 -22 0l-153 153q-4 4 -4 10.5zM517 -128q-104 0 -199 40.5t-163.5 109t-109 163.5t-40.5 199t40.5 199t109 163.5t163.5 109t199 40.5t199 -40.5t163.5 -109t109 -163.5
t40.5 -199t-40.5 -199t-109 -163.5t-163.5 -109t-199 -40.5zM517.5 869q-98.5 0 -188.5 -38.5t-155 -103.5t-103.5 -154.5t-38.5 -188.5t38.5 -188.5t103.5 -154.5t155 -103.5t188.5 -38.5t188 38.5t154.5 103.5t103.5 154.5t38.5 188.5t-38.5 188.5t-103.5 154.5
t-154.5 103.5t-188 38.5z" />
    <glyph glyph-name="uniE632" unicode="&#xe632;" 
d="M512 894l-502 -183l188 -68v-114q0 -24 32 -48q0 -1 -0.5 -6t-0.5 -7q0 -78 35 -140.5t101 -97.5q-106 -36 -172 -116t-83 -189q-1 -4 -1 -8q0 -35 27 -37q31 -3 37 33q19 127 113 200t228 73q151 0 233.5 -72t103.5 -201q1 -9 2 -11v0q11 -30 36 -27q27 3 27 36
q0 6 -2 13q-19 108 -85 189.5t-170 116.5q66 35 101 97.5t35 140.5l-1 12q32 25 32 49v114l188 68zM512 249q-86 0 -150 56.5t-72 138.5q133 -53 226 -53q85 0 218 53q-9 -83 -72.5 -139t-149.5 -56zM757 544q0 -3 -6.5 -7.5t-18 -10.5t-16.5 -9q-5 -4 -11 -7
q-35 -20 -87.5 -34t-105.5 -14t-105 14t-88 35l-10 6q-4 3 -15.5 9.5t-17 10.5t-5.5 7v66l241 -83l245 83v-66zM512 595l-336 116l336 117l337 -117zM512 595z" />
    <glyph glyph-name="uniE633" unicode="&#xe633;" 
d="M920 177q-2 22 -14 35t-30 12.5t-29.5 -13.5t-12.5 -36q-1 -15 -1 -39v-38q-1 -39 -41 -45q-8 -1 -41 -1h-479h-31q-27 3 -37.5 14t-12.5 38v36q0 25 -1 36q-1 22 -13 35t-30 13t-30 -13t-13 -35q-2 -23 -1 -82q1 -65 31.5 -95.5t94.5 -31.5h278h299q51 1 81 29t33 78
q3 47 0 103zM238 428q8 6 34 32q30 30 185 186q5 -2 12 -5v-50v-355q0 -32 2 -41q6 -33 40 -34t41 31q2 11 2 41v424q166 -166 211 -210q19 -19 27 -23q23 -12 42.5 1.5t19.5 43.5q-1 2 -5.5 9t-9 13.5t-10.5 11.5q-41 44 -272 273q-14 14 -19 17q-29 17 -51 -2q-5 -1 -7 -2
q-3 -1 -6 -4t-7 -7.5t-5 -5.5l-263 -263q-16 -17 -21 -23q-21 -31 4 -56q26 -25 56 -2z" />
    <glyph glyph-name="uniE634" unicode="&#xe634;" 
d="M512 783q-101 0 -192.5 -39t-158 -105.5t-105.5 -158t-39 -192.5t39 -192.5t105.5 -158t158 -105.5t192.5 -39t192.5 39t158 105.5t105.5 158t39 192.5t-39 192.5t-105.5 158t-158 105.5t-192.5 39zM573 -22h-118v118h118v-118zM711 348q-23 -35 -95 -95q-37 -30 -46 -49
t-8 -68h-107v28q0 52 17 86q17 33 68 75q51 41 62 55q16 20 16 45q0 35 -27.5 59.5t-74.5 24.5q-44 0 -75 -26q-30 -25 -41 -78l-108 14q4 75 64 127q59 52 155 52q102 0 162 -53q59 -52 59 -123q0 -39 -21 -74z" />
    <glyph glyph-name="uniE635" unicode="&#xe635;" 
d="M337 48q-15 0 -25.5 10.5t-10.5 25.5v600q0 15 10.5 25.5t25.5 10.5t25.5 -10.5t10.5 -25.5v-600q0 -15 -10.5 -25.5t-25.5 -10.5zM687 48q-15 0 -25.5 10.5t-10.5 25.5v600q0 15 10.5 25.5t25.5 10.5t25.5 -10.5t10.5 -25.5v-600q0 -15 -10.5 -25.5t-25.5 -10.5z" />
    <glyph glyph-name="uniE636" unicode="&#xe636;" 
d="M904 630h-199l227 223q7 8 7 18t-7 17.5t-17.5 7.5t-17.5 -7l-263 -259h-234l-263 259q-7 7 -17.5 7t-17.5 -7.5t-7 -17.5t7 -18l227 -223h-209q-42 0 -71.5 -29.5t-29.5 -70.5v-557q0 -42 29.5 -71.5t71.5 -29.5h784q42 0 71.5 29.5t29.5 71.5v557q0 41 -29.5 70.5
t-71.5 29.5zM956 -27q0 -21 -15 -36t-37 -15h-784q-21 0 -36 15t-15 36v557q0 21 15 36t36 15h784q22 0 37 -15t15 -36v-557zM696 270l-301 173q-13 7 -25 0t-12 -21v-347q0 -15 12 -22q6 -3 12.5 -3t12.5 3l301 174q12 7 12 21.5t-12 21.5zM407 118v261l226 -131z" />
    <glyph glyph-name="uniE637" unicode="&#xe637;" horiz-adv-x="1044" 
d="M515 -128q-103 0 -197 38.5t-167 111t-112 166t-39 196.5t39 196.5t112 166t167 111t197.5 38.5t197.5 -38.5t167 -111.5q99 -98 134 -230t0 -264t-134 -230q-73 -73 -167.5 -111.5t-197.5 -38.5v0zM515 829q-89 0 -171 -33.5t-145.5 -96.5t-97.5 -144.5t-34 -170.5
t34 -170.5t97.5 -144.5t145 -96.5t171.5 -33.5t172 33.5t145 96.5q86 86 116.5 200.5t0 229t-116.5 200.5q-63 63 -145 96.5t-172 33.5v0zM332 244q3 -4 7.5 -10.5t21.5 -23t36.5 -29t51.5 -23t66.5 -10.5t68 10t56.5 24t41.5 28.5t27.5 23.5l9 10h5q3 0 11 -2.5t14 -7
t11 -14.5t5 -24q-3 -4 -9.5 -11.5t-29.5 -27t-49 -34t-69.5 -27t-91 -12.5t-88.5 11.5t-65 28t-41 33t-24 28.5l-7 11q0 2 0.5 5.5t2.5 11.5t5.5 14.5t12.5 11.5t21 5v0zM365 549q-26 0 -44.5 -18.5t-18.5 -44.5t18.5 -44.5t45 -18.5t45 18.5t18.5 44.5t-18.5 44.5
t-45.5 18.5v0zM689 549q-26 0 -44.5 -18.5t-18.5 -44.5t18.5 -44.5t44.5 -18.5t44.5 18.5t18.5 44.5t-18.5 44.5t-44.5 18.5v0z" />
    <glyph glyph-name="uniE638" unicode="&#xe638;" 
d="M512 -196q-205 0 -350.5 145.5t-145.5 350.5t145.5 350.5t350.5 145.5t350.5 -145.5t145.5 -350.5t-145.5 -350.5t-350.5 -145.5zM512 734q-180 0 -307 -127t-127 -307t127 -307t307 -127t307 127t127 307t-127 307t-307 127zM714 270h-172v-172q0 -13 -8.5 -21.5
t-21.5 -8.5t-21.5 8.5t-8.5 21.5v172h-172q-13 0 -21.5 8.5t-8.5 21.5t8.5 21.5t21.5 8.5h172v172q0 13 8.5 21.5t21.5 8.5t21.5 -8.5t8.5 -21.5v-172h172q13 0 21.5 -8.5t8.5 -21.5t-8.5 -21.5t-21.5 -8.5z" />
    <glyph glyph-name="uniE639" unicode="&#xe639;" 
d="M515 794zM780 607l2 -588q0 -47 -44 -47l-449 1q-44 0 -44 45v589h-70v-589q0 -47 33 -79.5t79 -32.5h448q47 0 79.5 32.5t32.5 79.5v589h-67zM338 481v-417q0 -4 2 -8h61q1 4 1 8v417h-64zM620 479v-415v-7q32 0 63 1v6v415h-63zM964 720h-249v70q1 70 -92 70h-224
q-90 0 -90 -68v-72h-253v-69h908v69zM651 720h-280v49q0 12 7.5 20.5t19.5 8.5l224 -1q12 0 20.5 -8t8.5 -19v-50zM481 479v-415q0 -4 1 -7h62v7v415h-63z" />
    <glyph glyph-name="uniE63A" unicode="&#xe63a;" 
d="M509 386zM461 386.5q0 19.5 14 33t33.5 13.5t33.5 -13.5t14 -33t-14 -33.5t-33.5 -14t-33.5 14t-14 33.5zM880 344q20 19 20 41q0 28 -32 50q-31 23 -90 39q-74 21 -175 28q7 -7 12 -11l29 -29q71 -8 124 -23q40 -11 65.5 -24.5t28.5 -26.5l1 -3l-1 -4q-2 -5 -7 -10
q-25 -24 -99 -43q12 -16 22 -32q73 20 102 48zM144 427q-20 -19 -20 -41q0 -56 122 -90q74 -20 175 -27q-5 5 -12 11q-15 15 -29 30q-70 7 -124 22q-40 11 -65.5 24.5t-28.5 26.5l-1 3l1 4q2 5 7 10q25 25 99 43q-12 16 -22 32q-73 -20 -102 -48zM804 613q1 27 -14 43
q-19 19 -58 14q-38 -5 -92 -35q-67 -37 -144 -102h14h2q20 0 41 -1q56 44 105 71q58 32 90 32q8 0 13 -3l3 -2l2 -3q2 -5 2 -13q-1 -35 -41 -99q20 -4 38 -9q38 66 39 107zM220 158q-1 -27 14 -43q39 -40 150 21q67 37 144 102h-14h-2q-20 0 -41 1q-56 -44 -105 -71
q-58 -32 -90 -32q-8 0 -13 3l-3 2l-2 3q-2 5 -2 13q1 35 41 99q-20 4 -38 8q-38 -65 -39 -106zM517 773q-28 0 -50.5 -30.5t-40.5 -89.5q-21 -74 -29 -174l12 12q14 14 29 27q8 70 24 125q11 39 25 64.5t27 28.5l3 1l4 -1q5 -2 10 -8q25 -26 42 -102q17 11 33 21
q-20 76 -48 106q-19 20 -41 20zM507 -2q56 0 91 121q21 73 29 173l-12 -12q-14 -13 -29 -27q-8 -70 -24 -124q-11 -40 -25 -65t-27 -29l-3 -1l-4 2q-5 1 -10 7q-25 26 -42 102q-17 -11 -33 -21q20 -76 48 -106q19 -20 41 -20v-3v3zM387 633q-68 39 -110 39q-27 0 -42 -16
q-20 -20 -13 -58q6 -37 37 -91q39 -66 106 -141v18v39q-46 55 -74 103q-45 77 -32 102l2 3l3 2q5 2 13 2q35 0 103 -40q3 20 7 38zM747 99q27 0 42 16q40 40 -24 149q-39 66 -106 141v-18q1 -18 0 -39q46 -54 74 -103q45 -77 32 -102l-2 -3l-3 -2q-5 -2 -13 -2
q-35 0 -103 40q-3 -20 -7 -38q68 -39 110 -39v-3v3z" />
    <glyph glyph-name="uniE63B" unicode="&#xe63b;" 
d="M515 253l-233 256l-159 -302v-84h789l-312 281zM790 446q33 0 56 24t23 58t-23 58t-56 24t-56.5 -24t-23.5 -58t23.5 -58t56.5 -24zM0 806v-862h1024v862h-1024zM973 -1h-918v749h918v-749z" />
    <glyph glyph-name="uniE641" unicode="&#xe641;" 
d="M562 179q-94 0 -174.5 47t-127.5 127.5t-47 174.5q0 139 95 240q6 5 13.5 5t12.5 -5l77 -76q6 -6 6 -13t-5.5 -12.5t-12.5 -5.5t-13 5l-64 64q-73 -88 -73 -202q0 -130 92 -221.5t221 -91.5q117 0 205 76l-64 63q-5 5 -5 12.5t5 12.5t12.5 5t12.5 -5l77 -76q6 -5 6 -12.5
t-6 -13.5q-101 -98 -243 -98zM562 288q-99 0 -169.5 70.5t-70.5 169.5q0 94 64 163q34 37 80 57t96 20q100 0 170.5 -70.5t70.5 -169.5q0 -103 -75 -174q-70 -66 -166 -66zM562 733q-89 0 -150 -66q-54 -59 -54 -139q0 -84 60 -144.5t144 -60.5q82 0 141 57q64 60 64 148
q0 85 -60 145t-145 60zM509 92q-7 0 -12.5 5t-5.5 12v92q0 7 5.5 12.5t12.5 5.5t12.5 -5.5t5.5 -12.5v-92q0 -7 -5.5 -12t-12.5 -5zM690 -5h-355q-7 0 -12.5 5t-5.5 13v17q0 35 25.5 60.5t60.5 25.5h219q36 0 61 -25.5t25 -60.5v-17q0 -8 -5 -13t-13 -5zM353 30h320
q0 21 -15 35.5t-36 14.5h-219q-21 0 -35.5 -14.5t-14.5 -35.5z" />
    <glyph glyph-name="uniE643" unicode="&#xe643;" 
d="M522 275q-57 0 -96 40q-40 40 -39.5 96t40.5 96q9 8 17 -0.5t0 -16.5q-33 -33 -33.5 -79t32 -79.5t79 -33.5t79.5 32q8 8 16.5 0t-0.5 -17q-39 -38 -95 -38zM781 531q-58 0 -98 41q-40 40 -39.5 96.5t40.5 95.5q9 8 17 -0.5t0 -16.5q-33 -32 -33.5 -78.5t32.5 -79.5
q32 -34 79 -34.5t80 32.5q8 8 16.5 -0.5t-0.5 -16.5q-39 -39 -94 -39zM248 -5q-59 0 -100 42t-40.5 100.5t41.5 99.5l531 531q5 5 12.5 5t12.5 -5t5 -12.5t-5 -12.5l-531 -531q-31 -31 -31.5 -75t30.5 -75t74.5 -31.5t75.5 30.5q515 513 532 530q3 4 8.5 11t12.5 25.5
t5 34.5q-3 32 -39 57q-24 17 -54 11q-32 -6 -50 -34q-13 -19 -8 -42t25 -36q14 -10 31 -6t27 18q7 11 4 23t-13 19q-7 4 -15.5 2.5t-13.5 -8.5q-3 -6 -10.5 -7.5t-13.5 2t-7.5 11t2.5 13.5q12 19 35 24t42 -7q23 -15 28.5 -41.5t-8.5 -49.5q-18 -27 -49.5 -33.5t-57.5 10.5
q-33 21 -41 58.5t13 69.5q26 40 73 49q45 9 81 -17q49 -34 54 -82q3 -23 -6 -48t-16 -34.5t-13 -16.5q-14 -15 -533 -532q-42 -40 -100 -40zM402 455q-11 0 -14 11q-2 6 -7 23q-25 78 -27 130q-1 30 19 50q17 16 38 15q24 -2 39 -25q33 -54 -21 -190q-5 -11 -16 -10
q-3 -3 -7 -4h-4zM408 655q-7 0 -14 -7q-11 -11 -11 -28q2 -48 26 -122q39 108 16 145q-7 11 -16 11zM269 414q-26 0 -44 8q-24 11 -31 34q-7 21 9 42q17 24 55 24q73 0 156 -36q13 -6 8 -20q-3 -6 -9 -8q-2 -7 -9 -10q-83 -34 -135 -34zM259 493h-1q-23 0 -31 -12
q-7 -8 -5 -16q3 -11 15 -16q40 -19 140 20q-64 24 -118 24z" />
    <glyph glyph-name="uniE644" unicode="&#xe644;" 
d="M656 680h-287q-7 0 -12.5 5t-5.5 13v57q0 8 5.5 13t12.5 5h287q7 0 12 -5t5 -13v-57q0 -8 -5 -13t-12 -5zM387 715h251v23h-251v-23zM523 -5q-63 0 -115.5 20.5t-87 54.5t-55.5 72.5t-30 79.5q-6 28 -6 53q0 43 11 81.5t28.5 66.5t34 46t34.5 32q23 19 28.5 35t5.5 44
v111q0 8 5.5 13t12.5 5t12.5 -5t5.5 -13v-111q0 -22 -1.5 -34.5t-13 -33.5t-33.5 -38q-37 -30 -66 -79t-29 -120q0 -22 6 -45q7 -37 26 -70.5t49 -63.5t76 -48t102 -18q24 0 51.5 7.5t59.5 26t58.5 45.5t45 70.5t21.5 96.5q1 9 0 19q-2 103 -97 179q-22 17 -33 38
t-12.5 33.5t-1.5 34.5v111q0 8 5 13t12.5 5t12.5 -5t5 -13v-111q0 -19 1.5 -28.5t9 -23.5t24.5 -27q107 -85 110 -205q0 -11 -1 -22q-3 -55 -22 -102.5t-47.5 -79t-63.5 -54.5t-70 -33t-68 -10zM412 404q0 -11 7.5 -18.5t18.5 -7.5t18.5 7.5t7.5 18.5t-7.5 18.5t-18.5 7.5
t-18.5 -7.5t-7.5 -18.5zM392 319q0 -9 6.5 -15t15 -6t14.5 6t6 15t-6 15t-14.5 6t-15 -6t-6.5 -15zM777 296v-21q-3 -54 -22 -99t-46 -74.5t-60.5 -50t-65 -29.5t-60.5 -9q-60 0 -109.5 19t-81.5 51t-51.5 68t-28.5 75l2 1q19 -1 46.5 1.5t73 15.5t79.5 35q20 13 47.5 33
t40 27.5t34.5 14t48 6.5q48 -1 90.5 -20t63.5 -44z" />
    <glyph glyph-name="uniE645" unicode="&#xe645;" 
d="M511 89q-106 0 -181 75t-75 181t75 181t181 75t181 -75t75 -181t-75 -181t-181 -75zM511 568q-92 0 -157.5 -65.5t-65.5 -157.5t65.5 -157.5t157.5 -65.5t157.5 65.5t65.5 157.5t-65.5 157.5t-157.5 65.5zM512 224q-112 0 -211.5 15.5t-166.5 48t-67 75.5q0 67 152 106
q7 2 13 -1.5t7.5 -10t-2 -12.5t-9.5 -8q-66 -16 -97.5 -37t-31.5 -37q0 -23 48 -47t146 -41.5t219 -17.5t219 17.5t146 41.5t48 47q0 17 -32 37.5t-99 37.5q-6 2 -9.5 7.5t-2 12t7.5 10t12 2.5q155 -40 155 -107q0 -43 -67 -75.5t-166.5 -48t-211.5 -15.5zM793.5 535
q-29.5 0 -50.5 21t-21 50.5t21 51t50.5 21.5t50.5 -21.5t21 -51t-21 -50.5t-50.5 -21zM793.5 646q-16.5 0 -28 -11.5t-11.5 -27.5t11.5 -27.5t28 -11.5t28 11.5t11.5 27.5t-11.5 27.5t-28 11.5zM677 488h-345q-7 0 -12 4.5t-5 11.5t5 11.5t12 4.5h345q6 0 11 -4.5t5 -11.5
t-5 -11.5t-11 -4.5zM584 398h-302q-7 0 -12 5t-5 11.5t5 11.5t12 5h302q7 0 12 -5t5 -11.5t-5 -11.5t-12 -5zM740 398h-97q-7 0 -11.5 5t-4.5 11.5t4.5 11.5t11.5 5h97q7 0 11.5 -5t4.5 -11.5t-4.5 -11.5t-11.5 -5zM354 318h-83q-6 0 -11 5t-5 11.5t5 11.5t11 5h83
q7 0 12 -5t5 -11.5t-5 -11.5t-12 -5zM682 317h-166q-7 0 -11.5 5t-4.5 11.5t4.5 11.5t11.5 5h166q7 0 12 -5t5 -11.5t-5 -11.5t-12 -5zM673 153h-84q-7 0 -11.5 5t-4.5 11.5t4.5 11.5t11.5 5h84q7 0 11.5 -5t4.5 -11.5t-4.5 -11.5t-11.5 -5z" />
    <glyph glyph-name="uniE646" unicode="&#xe646;" 
d="M511 51q-42 0 -82.5 9.5t-66.5 21.5t-49.5 27.5t-31.5 22.5t-12 12q-5 5 -5 12v142q0 7 5 12t12.5 5t12.5 -5t5 -12v-134q12 -11 28 -22.5t50.5 -27t72.5 -23t93.5 -3t113.5 25.5q7 3 13.5 0t9 -10t-0.5 -13.5t-10 -9.5q-81 -30 -158 -30zM515.5 281q-4.5 0 -7.5 2
l-432 226q-9 5 -9 16t9 16l428 230q8 4 16 0l428 -228q9 -5 9 -16t-9 -16l-424 -228q-4 -2 -8.5 -2zM122 525l394 -207l386 209l-390 208zM739 -5q-8 0 -13 5t-5 13v395l-226 109q-7 3 -9.5 10t1 13.5t10 9t13.5 -0.5l236 -115q10 -4 10 -15v-406q0 -8 -5 -13t-12 -5z" />
    <glyph glyph-name="uniE64A" unicode="&#xe64a;" 
d="M920 755q-63 0 -127 14t-105.5 31.5t-81 40.5t-51.5 32t-19 15q-11 9 -24.5 8t-22.5 -12q-28 -36 -78.5 -62.5t-108 -39.5t-107 -19.5t-91.5 -6.5q-15 -2 -23 -9q-9 -9 -9 -23v-370q0 -47 26.5 -111t72.5 -128t101.5 -119t120 -89.5t122.5 -34.5q59 0 124.5 35
t119.5 90.5t98.5 118.5t69.5 124t25 102v380q0 14 -9.5 23.5t-22.5 9.5zM908 337q0 -33 -24.5 -86.5t-66.5 -111.5t-91.5 -109.5t-106.5 -85t-104 -33.5q-57 0 -129 50.5t-130.5 120.5t-99 145t-40.5 122v367q40 2 83.5 7.5t105.5 18.5t119 39t95 63q56 -41 162.5 -82.5
t226.5 -47.5v-377zM908 337zM354 575q-15 31 -38 20q-21 -10 -5 -43l169 -363q9 -18 29 -18h1q19 0 28 18l175 362q16 32 -6 44q-21 10 -36 -20l-161 -345zM349 575z" />
    <glyph glyph-name="uniE64B" unicode="&#xe64b;" 
d="M423 47q-109 0 -201.5 54t-146.5 146.5t-54 201.5t54 201.5t146.5 146t201.5 53.5t201.5 -53.5t146 -146t53.5 -201.5t-53.5 -201.5t-146 -146.5t-201.5 -54zM422.5 794q-93.5 0 -173 -46.5t-125.5 -126t-46 -173t46 -172.5t125.5 -125.5t173 -46.5t173 46.5t125.5 125.5
t46 172.5t-46 173t-125.5 126t-173 46.5zM996 -11q9 -7 6 -22.5t-15 -29.5q-13 -14 -28 -18t-23 3l-258 240q-9 8 -6 23.5t15 28.5q13 14 28 18.5t23 -3.5z" />
    <glyph glyph-name="uniE64C" unicode="&#xe64c;" 
d="M614 402h179v-28h-179v28zM614 466h179v-28h-179v28zM614 530h179v-28h-179v28zM542 443h-135v-136q-56 0 -96 39.5t-40 96t40 96t96 39.5t95.5 -39.5t39.5 -95.5zM542 443zM438 411h104q0 -43 -30.5 -73.5t-73.5 -30.5v104v0zM438 411zM316 -9h-33v187h-40v-206
q0 -8 5.5 -13t12.5 -5h75h1q7 0 12 5t5 13v206h-38v-187zM736 -9h-33v187h-40v-206q0 -8 5 -13t13 -5h75q8 0 13 5t5 13v206h-38v-187zM780 170h79q12 0 20.5 8.5t8.5 20.5v531v1q0 12 -8.5 20.5t-20.5 8.5h-46h-33v9v18q0 11 -8 19t-19 8t-19 -8t-8 -19v-18v-9h-107v9v18
q0 11 -8 19t-19 8t-19 -8t-8 -19v-18v-9h-88h-18v9v18q0 11 -8 19t-19.5 8t-19 -8t-7.5 -19v-18v-9h-108v9v18q0 11 -8 19t-19.5 8t-19 -8t-7.5 -19v-18v-9h-32h-46q-12 0 -20.5 -8.5t-8.5 -20.5v-531v-1q0 -12 8.5 -20.5t20.5 -8.5h508h107zM838 211h-660l-1 510h20h43h542
h46h19l1 -509z" />
    <glyph glyph-name="uniE64D" unicode="&#xe64d;" 
d="M517 322q89 0 151.5 63t62.5 151.5t-62.5 151.5t-151.5 63t-151.5 -63t-62.5 -151.5t62.5 -151.5t151.5 -63zM517 715q74 0 126.5 -52.5t52.5 -126t-52.5 -126t-126.5 -52.5t-126.5 52.5t-52.5 126t52.5 126t126.5 52.5zM517 715zM935 47l-144 257q86 100 86 232
q0 72 -27.5 138t-78.5 117t-116.5 78t-137.5 27t-137.5 -27t-116.5 -78t-78.5 -117t-27.5 -138q0 -127 80 -225l-148 -264q-17 -26 -6 -45q8 -16 32 -17h1q37 2 112 0l78 -103l1 -1q8 -9 20 -9h1q14 1 23 16h1q14 23 156 289h8q142 -265 156 -289q10 -15 24 -16h1q12 0 20 9
l79 104q75 2 112 0h1q24 1 32 17q10 19 -6 45zM517 861q88 0 162.5 -43.5t118 -118.5t43.5 -162.5t-43.5 -162.5t-118 -118.5t-162.5 -43.5t-162.5 43.5t-118 118.5t-43.5 162.5t43.5 162.5t118 118.5t162.5 43.5zM326 -85l-80 105h-8q-78 3 -123 1l4 8l143 254l1 -1
q86 -86 206 -102q-118 -220 -143 -265zM786 20h-8l-80 -105q-25 45 -143 264q122 13 210 98l139 -247l1 -1l4 -8q-45 2 -123 -1zM786 20z" />
    <glyph glyph-name="uniE64E" unicode="&#xe64e;" horiz-adv-x="1025" 
d="M80 677zM58 677.5q0 9.5 6.5 16t16 6.5t16 -6.5t6.5 -16t-6.5 -16t-16 -6.5t-16 6.5t-6.5 16zM82 202zM58 202.5q0 9.5 7 16.5t16.5 7t16.5 -7t7 -16.5t-7 -16.5t-16.5 -7t-16.5 7t-7 16.5zM324 299h38v141h-38v-141zM400 299h38v194h-38v-194zM438 581h-57l19 -18
l-76 -70l-38 35l-113 -106l19 -18l94 88l38 -35l95 88l19 -17v53zM82 180h601v12q-81 3 -121 34h-459v427h485q9 5 17 7.5t19.5 3.5t17.5 1h20h17h3h1v35h-602v-21h-23v-478h24v-21zM1003 249l-114 73q-6 5 -14 7q13 39 10 97t-22 98q-38 82 -117.5 111.5t-153.5 -10
t-99.5 -125t12.5 -167.5t117.5 -111.5t153.5 9.5q20 11 59 44q5 -6 10 -10l114 -72q15 -11 25.5 -12.5t12.5 0.5l9 9l10 12q10 15 7 24.5t-20 22.5zM755.5 275.5q-56.5 -30.5 -117.5 -7t-91 87t-10.5 129.5t76.5 96.5t118 7t90.5 -87t10 -129.5t-76 -96.5zM730 164h-711
q-8 -6 -14 -53q-11 -52 0 -63h739v63h-1zM492 72h-237v32h237v-32zM286 299v123h-37v-123h37zM173 299h38v88h-38v-88z" />
    <glyph glyph-name="uniE64F" unicode="&#xe64f;" 
d="M639 707h175q53 0 90.5 -37.5t37.5 -90.5h-161q1 -7 1 -15v-365q0 -59 -42 -101t-101 -42h-394q-53 0 -90.5 37.5t-37.5 89.5h177q-1 8 -1 16v111h39v-111q0 -8 1 -16h261q4 -41 20 -63t36.5 -21.5t41 12t35.5 36t16 52.5v365q0 46 -29 75t-75 29h-203q-40 0 -81 -43
l-39 17q20 30 51.5 47.5t68.5 17.5h203zM499 383h186v-29h-186v29zM499 450h186v-29h-186v29zM499 516h186v-29h-186v29zM499 583h186v-29h-186v29zM437 443l-199 199l-86 -85l200 -200l123 -37zM204 676l-28 28q-9 8 -21.5 8t-21.5 -8l-42 -43q-9 -9 -9 -21.5t9 -21.5
l27 -27zM204 676z" />
    <glyph glyph-name="uniE650" unicode="&#xe650;" 
d="M700 896h-376q-35 0 -60 -25t-25 -60v-854q0 -35 25 -60t60 -25h376q35 0 60 25t25 60v854q0 35 -25 60t-60 25zM461 828h102q7 0 12 -5t5 -12t-5 -12t-12 -5h-102q-7 0 -12 5t-5 12t5 12t12 5zM512 -94q-21 0 -36 15t-15 36.5t15 36.5t36 15t36 -15t15 -36.5t-15 -36.5
t-36 -15zM751 43h-478v682h478v-682zM751 43z" />
    <glyph glyph-name="uniE651" unicode="&#xe651;" 
d="M531 152q0 -1 1 -1q154 27 307 6q18 -2 21 -2q7 1 7 12v388q0 31 -52.5 46.5t-128.5 15.5q-56 0 -104.5 -10t-69.5 -28q-22 18 -69.5 28t-103.5 10q-48 0 -87.5 -6t-67 -20.5t-27.5 -35.5v-381q-1 -12 11 -12q53 7 141 6t191 -17zM703 192q-22 0 -95 -4.5t-81 -6.5v379
q0 6 17.5 14t56 15t85.5 7q19 0 33.5 -1.5t24.5 -3t16.5 -4.5t10 -5t5.5 -6.5t2 -5.5v-6v-4v-369zM438 186q-77 8 -157 8q-14 0 -22.5 -1t-15.5 -1v363v2q0 5 0.5 8t5.5 8.5t14 9t28.5 6t47.5 2.5q48 0 86.5 -7t56 -15t17.5 -14v-375zM442 182q-120 12 -161 12zM747 397
q-85 17 -171 0v18q86 17 171 0v-18zM747 397zM747 453q-85 17 -171 0v10v8q86 17 171 0v-18zM747 453zM747 471v-18v18zM747 453zM576 360q86 17 171 0v-18q-85 17 -171 0v18zM576 360zM451 401q-86 16 -171 0v7v6v5q85 16 171 0v-18zM451 401zM451 340q-86 15 -171 0v6v6v6
q85 15 171 0v-18zM451 340zM280 474q85 16 171 0q-1 0 -0.5 -6.5t0.5 -11.5q-86 16 -171 0v18zM451 456zM512 -100q-98 0 -187.5 38.5t-154.5 103.5t-103.5 154.5t-38.5 187.5t38.5 187.5t103.5 154.5t154.5 103.5t187.5 38.5t187.5 -38.5t154.5 -103.5t103.5 -154.5
t38.5 -187.5t-38.5 -187.5t-103.5 -154.5t-154.5 -103.5t-187.5 -38.5zM512 837q-92 0 -176 -36t-144.5 -96.5t-96.5 -144.5t-36 -176t36 -176t96.5 -144.5t144.5 -96.5t176 -36t176 36t144.5 96.5t96.5 144.5t36 176t-36 176t-96.5 144.5t-144.5 96.5t-176 36z" />
    <glyph glyph-name="uniE652" unicode="&#xe652;" 
d="M660 166q3 -15 2.5 -21t-4 -20t-4.5 -23q7 -1 32 -2t38 -8q8 -5 12.5 -12t5 -11.5t0 -14.5t-0.5 -13q-1 0 -5 -1l-6 -2q-2 -1 -6 -2t-6 -1t-6.5 -0.5t-7.5 0.5t-7 2t-8.5 3t-8.5 4q-8 5 -17 19t-17 16l-9 -8l-13 14l9 7q-1 8 -13.5 21t-15.5 21q-6 19 0 36.5t17 26.5
q1 0 5.5 -1t5.5 -1.5t4.5 -1.5t5 -2t4 -3t4 -3.5t3.5 -4.5t3.5 -6.5t3.5 -7.5zM660 166zM698 123l7 11q-1 8 -13.5 19.5t-15.5 18.5q-7 22 -2.5 37t14.5 24q1 0 5 -1t5.5 -1.5t5 -1t4.5 -1.5t4 -2.5t4 -3.5t3.5 -4t4 -5.5t2.5 -7.5q4 -13 4 -19t-2.5 -19.5t-3.5 -22.5
q15 -1 25 0t21.5 0t20.5 -6q8 -4 12.5 -10.5t5 -10.5t1 -13.5t0.5 -12.5q-1 0 -5 -1.5t-5.5 -2t-5.5 -2t-6 -1.5t-6 -0.5t-6.5 0t-6.5 1.5t-8.5 2.5t-8.5 3.5q-7 4 -17 17t-17 15h-20zM726 205zM762 188q-1 7 -16.5 17.5t-18.5 17.5q-9 20 -6.5 34.5t9.5 23.5h6q4 0 5 -0.5
t4 -1t4.5 -1t4 -1.5t4.5 -2.5t4 -3.5t4 -5l4 -6q4 -8 5.5 -18t0.5 -18.5t0 -20.5q9 0 22.5 2.5t20 3t19.5 -3.5q9 -3 14 -8.5t6 -9.5t2.5 -12.5t1.5 -11.5l-4 -2l-5 -3q-1 0 -4.5 -1.5t-5.5 -2t-5.5 -1.5t-6.5 -1t-6.5 0.5t-7.5 1.5t-9 3q-7 2 -17.5 13t-17.5 12zM770 260z
M801 248q-2 5 -14.5 12t-15.5 11q-17 23 -3 45q7 0 12 0.5t10 -2.5t10 -11q5 -5 6.5 -12t2 -16t1.5 -15q5 1 21.5 5.5t26.5 1.5q7 -1 11 -5t5.5 -7t3 -9.5t2.5 -8.5q-1 0 -3.5 -2t-3.5 -2.5t-3.5 -2t-4 -2t-4 -1.5t-4.5 -1h-5q-3 0 -6 0.5t-7 0.5q-6 2 -15 9.5t-14 7.5z
M800 303zM824 305q-2 5 -16 11.5t-18 11.5q-17 22 -4 45q9 2 17 0t16 -12q4 -6 6 -12.5t3 -15.5t2 -15q5 1 21.5 6t26.5 3q6 -2 10.5 -5.5t6 -6.5t3.5 -9.5t3 -8.5q-1 0 -3.5 -2t-3 -2.5t-3 -2t-4 -2t-4 -1.5t-5 -1.5t-5.5 -0.5t-6 0.5t-7 0.5q-5 1 -16.5 8.5t-16.5 7.5z
M822 366zM842 363q-2 3 -13.5 6.5t-14.5 5.5q-13 12 -9 29q14 5 22 -3q4 -3 6 -7.5t4 -11t4 -10.5q4 3 9 7t9.5 6t9.5 3q14 1 22 -13q-13 -19 -27 -20q-4 0 -10.5 3.5t-10.5 2.5zM815 351zM636 76l-8 13q5 2 11 5t26 14.5t37 23.5t36.5 30.5t31.5 37.5q26 39 43.5 82
t22 63.5t4.5 24.5h4q0 -9 -2.5 -29t-17.5 -64t-42 -85q-13 -19 -32.5 -38.5t-37 -32t-36.5 -24t-27 -15.5t-13 -6zM373 166q-3 -15 -2.5 -21t4 -20t4.5 -23q-7 -1 -32 -2t-37 -8q-9 -5 -13 -12t-5 -11.5t-0.5 -14.5t0.5 -13q1 0 6 -1l6 -2q1 -1 5 -2t6.5 -1t6.5 -0.5t7 0.5
t7 2t8.5 3t8.5 4q8 5 17.5 19t16.5 16l10 -8l12 14l-9 7q1 8 13.5 21t15.5 21q7 19 0.5 36.5t-17.5 26.5q-1 0 -5.5 -1t-5.5 -1.5t-4.5 -1.5t-5 -2t-4 -3t-4 -3.5t-3.5 -4.5t-3.5 -6.5t-3.5 -7.5zM373 166zM336 123l-8 11q1 8 14 19.5t16 18.5q6 22 1.5 37t-14.5 24
q-1 0 -5 -1t-5 -1.5t-4.5 -1t-5 -1.5t-4 -2.5t-4 -3.5t-3.5 -4t-4 -5.5t-3 -7.5q-4 -13 -3.5 -19t2.5 -19.5t3 -22.5q-15 -1 -25 0t-21 0t-21 -6q-8 -4 -12.5 -10.5t-5 -10.5t-0.5 -13.5t-1 -12.5q1 0 5 -1.5t5.5 -2t5.5 -2t6 -1.5t6 -0.5t7 0t7 1.5t8 2.5t8 3.5q7 4 17 17
t17 15h21zM307 205zM271 188q1 7 16.5 17.5t18.5 17.5q9 20 6.5 34.5t-9.5 23.5h-5q-4 0 -5.5 -0.5t-4.5 -1t-4.5 -1t-4 -1.5t-4 -2.5t-4 -3.5t-4.5 -5l-4 -6q-4 -8 -5 -18t0 -18.5t-1 -20.5q-9 0 -22.5 2.5t-20 3t-19.5 -3.5q-9 -3 -13.5 -8.5t-6 -9.5t-2.5 -12.5t-2 -11.5
q1 0 4.5 -2t4.5 -2.5t4.5 -2t5.5 -2t5.5 -1.5t6.5 -1t7 0.5t7.5 1.5t8.5 3q7 2 18 13t17 12zM263 260zM232 248q2 5 14.5 12t16.5 11q16 23 2 45q-7 0 -12 0.5t-10 -2.5t-10 -11q-5 -5 -6.5 -12t-2 -16t-1.5 -15q-5 1 -21.5 5.5t-26.5 1.5q-6 -1 -10.5 -5t-6 -7t-3 -9.5
t-2.5 -8.5q1 0 3.5 -2t3.5 -2.5t3.5 -2t4 -2t4 -1.5t4.5 -1h5q3 0 6.5 0.5t6.5 0.5q6 2 15 9.5t14 7.5zM233 303zM209 305q2 5 16 11.5t18 11.5q17 22 4 45q-9 2 -17 0t-16 -12q-4 -6 -6 -12.5t-2.5 -15.5t-2.5 -15q-5 1 -21.5 6t-26.5 3q-6 -2 -10.5 -5.5t-6 -6.5
t-3.5 -9.5t-3 -8.5q1 0 3.5 -2t3.5 -2.5t3.5 -2t3.5 -2t4 -1.5t5 -1.5t5 -0.5t6 0.5t7 0.5q6 1 17 8.5t16 7.5zM212 366zM191 363q3 3 14 6.5t14 5.5q13 12 9 29q-13 5 -22 -3q-4 -3 -6 -7.5t-4 -11t-4 -10.5q-4 3 -9 7t-9.5 6t-8.5 3q-15 1 -23 -13q13 -19 27 -20
q4 0 10.5 3.5t10.5 2.5zM218 351zM397 76l8 13q-5 2 -11 5t-26 14.5t-37 23.5t-36.5 30.5t-31.5 37.5q-26 39 -43.5 82t-22 63.5t-4.5 24.5h-4q0 -9 2.5 -29t17.5 -64t42 -85q13 -19 33 -38.5t37 -32t36 -24t27 -15.5t13 -6zM609 445zM572 567zM512 724q-20 0 -29 -19
l-51 -109l-116 -18q-19 -3 -25.5 -22t7.5 -33l85 -89l-20 -122q-3 -21 14 -32q8 -6 18 -6q8 0 16 4l101 55l101 -55q8 -4 16 -4q10 0 18 6q17 11 14 32l-20 122l85 89q14 14 7.5 33t-25.5 22l-116 18l-51 109q-8 19 -29 19v0zM512 724zM512 -100q-98 0 -187.5 38.5
t-154.5 103.5t-103.5 154.5t-38.5 187.5t38.5 187.5t103.5 154.5t154.5 103.5t187.5 38.5t187.5 -38.5t154.5 -103.5t103.5 -154.5t38.5 -187.5t-38.5 -187.5t-103.5 -154.5t-154.5 -103.5t-187.5 -38.5zM512 837q-92 0 -176 -36t-144.5 -96.5t-96.5 -144.5t-36 -176
t36 -176t96.5 -144.5t144.5 -96.5t176 -36t176 36t144.5 96.5t96.5 144.5t36 176t-36 176t-96.5 144.5t-144.5 96.5t-176 36z" />
    <glyph glyph-name="uniE653" unicode="&#xe653;" 
d="M687 404q10 0 17.5 7.5t7.5 17t-7.5 17t-17.5 7.5h-109l73 124q2 5 -2 15.5t-12 14.5q-9 4 -19 1.5t-15 -10.5l-87 -145h-7l-86 145q-14 20 -36 9q-8 -5 -11.5 -14t-2.5 -16l74 -124h-110q-10 0 -17.5 -7.5t-7.5 -17t7.5 -17t17.5 -7.5h150v-82h-150q-10 0 -17.5 -7.5
t-7.5 -17t7.5 -17t17.5 -7.5h150v-94q0 -9 8.5 -15.5t19 -6.5t18.5 6.5t8 15.5v94h146q10 0 17.5 7.5t7.5 17t-7.5 17t-17.5 7.5h-146v82h146zM687 404zM512 -52q-89 0 -169.5 34.5t-139 93t-93 139t-34.5 169.5t34.5 169.5t93 139t139 93t169.5 34.5t169.5 -34.5t139 -93
t93 -139t34.5 -169.5t-34.5 -169.5t-93 -139t-139 -93t-169.5 -34.5zM512 781q-108 0 -199.5 -53t-144.5 -144.5t-53 -199.5t53 -199.5t144.5 -144.5t199.5 -53t199.5 53t144.5 144.5t53 199.5t-53 199.5t-144.5 144.5t-199.5 53z" />
    <glyph glyph-name="uniE654" unicode="&#xe654;" 
d="M191 497h209v-26h-209v26zM634 230q2 -1 4 -1h1h1t3 1h1q3 2 4 3l75 75l75 -75q1 -1 4 -3h1q2 -1 3 -1h1h1q2 0 4 1q3 1 5 3q3 4 3 9v383v63v45q0 5 -3.5 9t-9.5 4h-168q-1 0 -4 -1h-1q-8 -4 -8 -12v-45v-63v-383q0 -8 8 -12zM634 230zM182 470zM191 422h209v-26h-209v26
zM182 395zM191 347h209v-27h-209v27zM182 320zM191 272h209v-27h-209v27zM182 245zM722 40q110 0 204 -16q3 -1 5 -1q12 0 20 8q12 9 12 24v547q-1 55 -105 79v-46q18 -5 40 -13.5t26 -12.5v-545q-84 12 -190.5 12t-190.5 -12v553q10 10 45 19v42q-40 -9 -65 -26
q-31 22 -93 32.5t-128 10.5q-44 0 -84.5 -5t-76.5 -15.5t-58 -29t-22 -43.5v-547q0 -15 11.5 -24.5t25.5 -6.5q6 1 36 6.5t41.5 7t35.5 4.5t44 4t41 0q77 -2 226 -24q76 13 200 18zM503 64q-140 19 -201 19t-202 -19v542q8 20 68 36.5t134 16.5q76 0 133.5 -12.5t67.5 -29.5
v-556v3zM496 76z" />
    <glyph glyph-name="uniE655" unicode="&#xe655;" 
d="M84 157l428 454l428 -454h-856z" />
    <glyph glyph-name="uniE656" unicode="&#xe656;" 
d="M137 333h187v563h376v-563h187q-54 -76 -147.5 -191.5t-159.5 -192.5l-65 -77z" />
    <glyph glyph-name="uniE657" unicode="&#xe657;" 
d="M421 801l400 -434l-434 -400zM236 801l401 -434l-434 -400z" />
    <glyph glyph-name="uniE658" unicode="&#xe658;" 
d="M221 -127q-13 0 -22 7q-21 16 -14 43l87 314l-259 234q-20 18 -11 43.5t35 25.5h330l108 329q4 12 14 19t21 7h1q26 0 35 -25l112 -330h329q12 0 21.5 -7t13.5 -19q9 -26 -12 -43l-263 -220l92 -328q7 -26 -14 -42.5t-42 -1.5l-272 191l-270 -191q-9 -6 -20 -6zM221 -127
z" />
    <glyph glyph-name="uniE659" unicode="&#xe659;" 
d="M768 839q-83 0 -155 -48t-101 -123q-29 75 -101 123t-155 48q-109 0 -182.5 -73.5t-73.5 -182.5q0 -46 12.5 -91t47 -96.5t64.5 -90.5t97 -105t110.5 -106.5t136.5 -124.5q29 -26 44 -40q15 14 44 40q93 84 136.5 124.5t110.5 106.5t97 105t64.5 90.5t47 96.5t12.5 91
q0 109 -73.5 182.5t-182.5 73.5zM507 101q-13 -15 -32 -15q-17 0 -29 12q-128 116 -202.5 194.5t-119.5 149.5q-10 15 -6 33t19 27.5t33 6t28 -19.5q41 -65 112.5 -139.5t194.5 -186.5q13 -13 14 -31t-12 -31zM507 101z" />
    <glyph glyph-name="uniE65A" unicode="&#xe65a;" 
d="M832 376l-626 517l231 -511l-245 -507z" />
    <glyph glyph-name="uniE65B" unicode="&#xe65b;" 
d="M748 468q0 76 -50 140t-136 101.5t-187.5 37.5t-188 -37.5t-136.5 -101.5t-50 -140q0 -68 41 -127t113 -97q0 -1 -19 -34.5t-37 -67.5l-19 -34q226 86 227 87q34 -5 68 -5q102 0 188 37.5t136 101.5t50 139zM1024 381q0 75 -46.5 139.5t-122 101.5t-160.5 38
q59 -59 80.5 -122t9 -117.5t-48.5 -104t-87.5 -84t-112.5 -55.5t-119 -21q1 -2 4 -5.5t18.5 -12.5t38.5 -16t68.5 -13t103.5 -6q35 0 68 5l227 -87q-74 135 -75 136q72 38 113 97t41 127zM1024 381z" />
    <glyph glyph-name="uniE65C" unicode="&#xe65c;" 
d="M37 511q-12 0 -21.5 -9.5t-9.5 -21.5v-577q0 -12 9.5 -21.5t21.5 -9.5h174v639h-174zM998 480q-29 35 -90 35h-178q-60 0 -81 9q42 74 42 162t-34 148q-35 61 -86 61h-4q-46 6 -71 -19q-22 -22 -19 -65q4 -49 -10.5 -95t-37.5 -77.5t-55.5 -60.5t-54.5 -43t-44 -26
q0 -18 0.5 -175.5t0.5 -309.5v-152q371 2 496 2q26 0 49.5 13t41 31.5t34 51.5t27.5 60.5t23.5 72t19 72t17.5 74.5q15 68 25 101q22 88 -11 130zM998 480z" />
    <glyph glyph-name="uniE65D" unicode="&#xe65d;" 
d="M368 391q-1 13 11 19q31 16 97 50q165 84 216 110q10 5 16 7t14 0.5t15 -8.5q1 -2 5 -3.5t5 -1.5q81 -49 169 -4q92 46 97 153q-1 27 -2 29q-7 59 -52 102.5t-102 50.5q-49 6 -97.5 -16t-74.5 -64q-31 -49 -31 -106q0 -10 -7 -14q-5 -3 -65 -33q-74 -37 -104 -53
q-140 -71 -164 -83q-8 -4 -18 3q-52 37 -108.5 37t-106.5 -38q-86 -66 -67 -175q12 -65 67 -108q45 -35 100.5 -37t103.5 29q11 7 21 2l42 -21l42 -21q9 -5 98 -50.5t135 -69.5q18 -8 25.5 -17.5t8.5 -28.5q5 -81 85 -134q26 -18 75 -24q97 -11 158 67q63 82 22 182
q-22 54 -76.5 83.5t-111.5 20.5q-53 -9 -86 -37q-10 -9 -18 -4q-15 7 -42 20.5t-36 18.5q-40 20 -120 60.5t-119 61.5q-17 8 -19.5 12.5t-0.5 21.5q1 7 0 11zM368 391z" />
    <glyph glyph-name="uniE65E" unicode="&#xe65e;" 
d="M442 -34v255h9q19 1 34.5 1.5t53.5 -1.5t69.5 -6.5t76.5 -14.5t82 -25t79 -39.5t74 -55.5t60 -76t44 -99q0 121 -19 222t-51 172.5t-78.5 126.5t-96.5 89t-109.5 55.5t-114 30t-113.5 8.5v254l-442 -448l442 -449v0zM442 -34z" />
    <glyph glyph-name="uniE65F" unicode="&#xe65f;" 
d="M736 148q-13 0 -21 10q-7 8 -6 19.5t10 18.5q43 34 66 83.5t23 104.5t-23 104t-66 84q-9 7 -10 18t6 20t18 10t20 -6q52 -43 80.5 -103t28.5 -127t-28.5 -127.5t-80.5 -102.5q-8 -6 -17 -6zM736 148zM838 22q-13 0 -21 10q-7 9 -6 20t10 18q71 58 110 140t39 174t-39 174
t-110 140q-9 7 -10 18t6 19.5t18 9.5t20 -6q80 -65 124.5 -158t44.5 -197t-44.5 -197t-124.5 -159q-8 -6 -17 -6zM838 22zM634 273q-13 0 -21 10q-7 9 -6 20t10 18q30 24 30 62.5t-30 63.5q-9 7 -10 18t6 19.5t18 9.5t20 -6q50 -40 50 -104t-50 -105q-8 -6 -17 -6zM634 273z
M439 777q-20 0 -39 -17l-221 -187h-98q-34 0 -57.5 -24t-23.5 -57v-216q0 -33 23.5 -57t57.5 -24h98l221 -187q19 -17 39 -17q23 0 36 19q10 15 10 37v674q0 27 -13.5 41.5t-32.5 14.5zM431 51z" />
    <glyph glyph-name="uniE660" unicode="&#xe660;" horiz-adv-x="1025" 
d="M608 792q-15 26 -40.5 41t-55.5 15t-55.5 -15t-40.5 -41l-402 -708q-14 -25 -14 -54.5t15 -55t40.5 -40t54.5 -14.5h804q29 0 54.5 14.5t40.5 40t15 55t-14 54.5l-402 708v0zM562 55q-18 -16 -43 -16q-24 0 -42.5 16t-18.5 45q0 25 17 43q18 18 44 18q25 0 43 -18t18 -43
q0 -29 -18 -45v0zM578 506l-18 -200q-3 -36 -12 -55t-31 -19t-31 18q-8 19 -12 57l-13 194q-4 58 -4 82q0 34 18 53t47 19q35 0 46.5 -24.5t11.5 -69.5q0 -26 -2 -55v0zM578 506z" />
    <glyph glyph-name="uniE661" unicode="&#xe661;" horiz-adv-x="1025" 
d="M998 450q20 68 13 132t-42 110q-76 104 -214 104q-123 0 -222 -109q-100 109 -223 109q-75 0 -138.5 -36.5t-95.5 -101.5q2 -5 5.5 -9t10.5 -8t12 -7t16.5 -8.5t19.5 -9.5q46 115 170 115q69 0 128.5 -35.5t94.5 -109.5q35 76 95.5 113t126.5 37q44 0 87.5 -19t64.5 -49
q18 -25 30.5 -60t12.5 -79t-18 -79q33 3 66 0zM998 450zM1024 407q-19 2 -56 -1.5t-82.5 -14t-86 -37t-55.5 -63.5q3 40 14 54q-45 -23 -77 -58.5t-47.5 -67.5t-39 -76.5t-46.5 -74.5q-7 41 -29 83t-43.5 68t-55 63.5t-46.5 52.5q-12 16 -38 47.5t-45.5 56t-33.5 46.5
q0 -11 -2 -34t-2 -33q-14 19 -47 45.5t-65.5 51t-62.5 51.5t-44 57.5t-5 60.5q-36 -57 -27.5 -164t48.5 -167q26 -39 69 -72t83 -52.5t91.5 -46.5t84.5 -51q98 -74 155 -159q15 23 31 43t36 39l30 31q11 11 35 29t29.5 22t33.5 24l28 19q79 55 125 100q13 14 30.5 38.5
t29.5 41t34 31t49 17.5zM1024 407z" />
    <glyph glyph-name="uniE662" unicode="&#xe662;" 
d="M512 876q-100 0 -191 -39t-157 -105t-105 -157t-39 -191t39 -191t105 -157t157 -105t191 -39t191 39t157 105t105 157t39 191t-39 191t-105 157t-157 105t-191 39zM400 65q-15 -14 -31 -18t-30 7q-12 14 -11 30.5t14 28.5l289 261l-260 284v0q-14 14 -17 30.5t9 29.5
q13 12 31 11.5t30 -13.5l313 -348z" />
    <glyph glyph-name="uniE663" unicode="&#xe663;" 
d="M993 80v539q0 43 -72 66t-173 23q-76 0 -141 -13.5t-94 -38.5q-30 25 -95 38.5t-140 13.5q-65 0 -119.5 -9t-91 -30t-36.5 -50v-539q-1 -9 3.5 -14.5t11.5 -5.5q105 19 231.5 19t231.5 -19h4h1q1 1 2 0q105 19 232 19t232 -19h3q10 2 10 20zM748 671q64 0 114.5 -9.5
t72 -20.5t21.5 -19v-456q-55 19 -130 23.5t-114 -2.5q-33 -3 -65.5 -10t-48.5 -12l-16 -5q-11 -4 -49 -11v473q0 8 23 19t75.5 20.5t116.5 9.5zM278 669q64 0 116.5 -9.5t76 -20.5t23.5 -19v-473q-3 1 -5 1q-40 7 -49 13h-2q-103 43 -257 26q-85 -9 -111 -15v448
q0 8 21.5 19t71.5 20.5t115 9.5zM866 436q-122 24 -244 0q-1 22 0 24q122 25 244 0q1 -11 0 -24zM866 436zM866 511q-122 24 -244 0v24q122 25 244 0v-24zM866 511zM866 535v-24v24zM867 511zM622 385q122 25 244 0q1 -11 0 -24q-122 24 -244 0v24zM622 385zM399 436
q-122 22 -244 0v24q122 23 244 0v-24zM399 436zM155 535q61 12 122 12t122 -12v-24q-61 11 -122 11t-122 -11v24zM399 511z" />
    <glyph glyph-name="uniE664" unicode="&#xe664;" 
d="M772 829h-520q-61 0 -104.5 -43.5t-43.5 -104.5v-594q0 -61 43.5 -104.5t104.5 -43.5h520q61 0 104.5 43.5t43.5 104.5v594q0 61 -43.5 104.5t-104.5 43.5zM326 607h223q15 0 26 -11t11 -26.5t-11 -26.5t-26 -11h-223q-15 0 -26 11t-11 26.5t11 26.5t26 11zM698 236h-372
q-15 0 -26 10.5t-11 26t11 26.5t26 11h372q15 0 26 -11t11 -26.5t-11 -26t-26 -10.5zM698 384h-372q-15 0 -26 11t-11 26t11 26t26 11h372q15 0 26 -11t11 -26t-11 -26t-26 -11zM698 384z" />
    <glyph glyph-name="uniE665" unicode="&#xe665;" 
d="M930 143q-29 22 -91 55t-110 55l-48 23l-119 -221l-18 53l33 66l-66 66l-66 -66l33 -66l-21 -54l-116 222q-185 -83 -249 -133q-28 -22 -51 -73.5t-32 -87t-9 -40.5h1024q-1 7 -3 17t-9 38t-16.5 52t-27 51t-38.5 43v0zM930 143zM265 578q0 -49 18.5 -94.5t53.5 -80.5
t80.5 -53.5t95 -18.5t95 18.5t80 53.5t53.5 80.5t19 95t-19 95t-53.5 80t-80 53.5t-95 19t-95 -19t-80.5 -53.5t-53.5 -80t-18.5 -95.5zM265 578z" />
    <glyph glyph-name="uniE666" unicode="&#xe666;" 
d="M512 384zM802 322l96 -137l-320 -223l-176 -22l87 157zM857 360l43 30q15 10 32 7t26 -17l48 -68q10 -15 7 -32t-17 -26l-44 -31zM857 360zM604 259q8 -8 21 -7t21 9q9 13 0 25q-60 59 -140 87q54 33 86 88.5t32 121.5q0 101 -71.5 173t-172.5 72t-173 -72t-72 -173
q0 -66 33 -122t88 -89q-109 -39 -177.5 -134.5t-68.5 -214.5q0 -6 3 -12q5 -12 26 -12q22 0 22 28q0 85 43.5 158.5t118 116.5t160.5 43h3h2q12 0 22 -1q4 0 16 -2q4 0 10 -1q11 -2 19 -4q1 0 2 -0.5t2 -0.5q59 -15 108 -51zM180 583q0 83 58.5 141.5t141 58.5t141 -58.5
t58.5 -141.5t-58.5 -141.5t-141 -58.5t-141 58.5t-58.5 141.5zM191 583z" />
    <glyph glyph-name="uniE667" unicode="&#xe667;" 
d="M693 549q15 0 35 -2q-23 109 -127.5 181.5t-238.5 72.5q-98 0 -181 -40.5t-132 -111.5t-49 -156q0 -143 145 -245l-36 -109l126 64q7 -2 26 -5.5t27 -5t22.5 -4t26.5 -3t25 -0.5q16 0 34 1q-11 38 -11 76q0 119 89.5 203t218.5 84v0zM498 647q21 0 33.5 -12.5t12.5 -33
t-12.5 -33t-33.5 -12.5t-37.5 13t-16.5 32.5t16.5 32.5t37.5 13v0zM245 556q-22 0 -38.5 13t-16.5 32.5t16.5 32.5t38.5 13q20 0 32.5 -12.5t12.5 -33t-12.5 -33t-32.5 -12.5v0zM1024 266q0 71 -43 132t-113.5 96t-151.5 35q-129 0 -218.5 -77t-89.5 -186t89.5 -186
t218.5 -77q37 0 109 18l99 -54l-27 90q127 96 127 209v0zM616 312q-13 0 -24.5 11t-11.5 24.5t11.5 25t24.5 11.5q20 0 32.5 -11t12.5 -25.5t-12.5 -25t-32.5 -10.5v0zM815 312q-13 0 -24.5 11t-11.5 24.5t11.5 25t24.5 11.5q20 0 33 -11t13 -25t-13 -25t-33 -11v0zM815 312
z" />
    <glyph glyph-name="uniE668" unicode="&#xe668;" horiz-adv-x="1025" 
d="M368 355q-35 -4 -61.5 -16t-42 -27t-26 -35t-14.5 -35.5t-5 -32.5t-1 -22.5t1 -8.5v-6q0 -4 2 -14t6.5 -19t14 -19.5t22.5 -17.5q47 -26 97 -26.5t89 18.5t66 53q15 20 20.5 49t-2.5 59t-26.5 54.5t-55 38t-84.5 7.5zM325 133q-23 -2 -40 10t-17 31q0 21 16 38t38 19
q27 3 43.5 -10t16.5 -33t-16.5 -36t-40.5 -19zM425 218q-8 -6 -16.5 -5t-13.5 8q-4 7 -2 16.5t9 15.5q10 7 18.5 6t13 -8.5t2 -17t-10.5 -15.5zM820 786q-58 14 -138 -1l-2 -1h-1l-1 -1q-13 -4 -21.5 -14.5t-8.5 -24.5q0 -17 12 -28.5t29 -11.5q21 2 36 8q6 0 20.5 2
t38.5 -4t48 -15.5t49.5 -30.5t42.5 -50q31 -70 13 -134q-8 -19 -8 -39q0 -16 11.5 -26t28.5 -10t26 6.5t12 27.5h1q21 65 16 118t-23 92t-50 67.5t-64 45t-67 24.5zM841 463q10 0 17.5 7t9.5 16v3q4 38 -2 67t-19 45t-30 26.5t-34.5 13.5t-32.5 3.5t-24 -0.5l-10 -1
q-11 0 -19 -8.5t-8 -19.5q0 -12 8 -20t19 -8q37 7 58 0.5t29.5 -22.5t10.5 -32.5t0 -29.5l-1 -12q0 -12 8 -20t20 -8zM758 395q-17 3 -22.5 10.5t-1.5 12.5l4 6q1 3 3.5 7.5t7 18t5 26.5t-5 29.5t-18.5 29.5q-16 16 -42.5 21.5t-52.5 1t-50 -11t-38 -12.5l-15 -6
q-12 -4 -19.5 -5.5t-12 0.5t-6.5 3.5t-1.5 8t1 11t3 14.5t3.5 16q0 18 -2.5 33t-12.5 31.5t-26.5 25t-47 8t-71.5 -14.5q-40 -14 -82 -41.5t-73.5 -57.5t-57 -58t-39.5 -45.5t-13 -17.5q-24 -32 -40.5 -64.5t-23 -56t-9 -43t-2.5 -29.5v-9q7 -56 34.5 -100.5t65.5 -72
t89.5 -47t99 -28t100.5 -13.5q87 -6 179.5 14.5t173 71t113.5 120.5q19 41 19.5 77t-12 59t-33 40.5t-38.5 25.5t-33 11zM401 31q-125 -6 -214 49.5t-89 138.5q0 84 88 144t215 66q129 6 216.5 -42.5t87.5 -130.5q0 -85 -89.5 -152t-214.5 -73zM401 31z" />
    <glyph glyph-name="uniE669" unicode="&#xe669;" 
d="M172 318v-351q0 -17 12 -29t29 -12h628q16 0 28 12t12 29v363l-359 279l-350 -291v0zM615 302v-190q0 -16 -11.5 -27t-27.5 -11h-98q-17 0 -28.5 11t-11.5 27v190q0 16 11.5 27t28.5 11h98q16 0 27.5 -11t11.5 -27v0zM556 832q-13 10 -30 6q-21 9 -37 -4l-450 -364
q-12 -9 -14 -24.5t7 -27.5l23 -29q9 -13 24 -15t27 8l416 336l396 -322q12 -9 27 -7t24 14l23 29q9 12 7 27.5t-14 24.5l-429 348v0zM556 832z" />
    <glyph glyph-name="uniE66A" unicode="&#xe66a;" 
d="M932 261l-3 15l-3 8l-2 8l-3 8l-3 9l-3 9l-4 8l-7 14l-5 12l-6 11l-5 11l-6 9l-5 9l-9 13l-11 17l-3 4l-1 2v1l2 6l3 5l2 10l1 5v6l1 4v5l-1 5l-1 4l-1 8l-2 8l-2 7l-4 8l-3 6l-3 5l-3 6l-5 8l-2 3v2l-3 15l-1 10l-2 13l-2 13l-4 15l-2 8l-2 7l-3 9l-3 8l-2 8l-4 9l-8 17
l-4 8l-5 9l-5 8l-5 9l-7 8l-6 8l-7 8l-8 7l-7 8l-9 7l-4 3l-5 4l-9 6l-11 7l-11 7l-12 5l-12 6l-12 5l-13 4l-13 4l-12 3l-13 3l-13 3l-13 1l-13 2l-13 1h-40l-13 -1l-12 -1l-13 -2l-12 -2l-13 -2l-12 -3l-11 -4l-11 -4l-11 -3l-11 -5l-11 -5l-9 -5l-9 -6l-9 -6l-9 -6l-7 -7
l-12 -10l-9 -10l-9 -9l-8 -10l-8 -9l-7 -10l-6 -9l-3 -5l-3 -5l-6 -9l-5 -9l-5 -8l-3 -9l-4 -8l-3 -8l-3 -8l-3 -8l-4 -14l-2 -13l-2 -11l-1 -9v-19l-3 -3l-3 -3l-2 -4l-1 -4l-2 -8l-3 -7v-7l-1 -5v-5l-5 -7l-4 -8l-3 -7l-2 -7l-1 -6l-2 -5v-15l1 -4l1 -6l2 -5l-3 -3l-8 -6
l-11 -9l-7 -6l-6 -6l-5 -4l-4 -4l-8 -9l-7 -8l-6 -7l-7 -10l-7 -10l-6 -10l-6 -10l-5 -10l-5 -10l-3 -9l-4 -10l-3 -9l-3 -10l-2 -8l-2 -10l-1 -8l-2 -8v-16v-22v-6l2 -12l1 -4l2 -5l1 -5l2 -4l2 -6l2 -1l2 -3h1h2h6l7 2l6 2l5 4l6 4l5 4l5 5l4 5l5 5l3 5l4 4l2 5l5 8l1 3
l1 2v2l1 2h1l2 1h1v-1h1l3 -11l3 -8l3 -9l4 -8l3 -9l5 -7l3 -7l4 -7l4 -6l4 -5l9 -11l7 -9l8 -8l8 -6l6 -5l10 -9l3 -1l2 -2v-1l-1 -1h-1h-2l-7 -1l-6 -1l-6 -1l-6 -1l-5 -1l-5 -2l-5 -2l-3 -3l-5 -1l-3 -2l-3 -2l-3 -3l-4 -5l-2 -2l-1 -2l-3 -5l-1 -5l-2 -4l-1 -4v-7v-4v-3
l-1 -4v-3l1 -3v-4l2 -6l2 -2l2 -3l2 -3l2 -2l3 -3l2 -3l7 -4l6 -4l8 -4l8 -3l8 -4l10 -2l9 -3l11 -2l10 -1l10 -2l11 -2l22 -2h22h39h10l8 1l8 1h8l11 3l9 2l8 2l15 6l7 3l7 3l11 6l9 5l8 4l5 5l8 -1l6 -1h13h11l4 -1l4 -2l6 -2l7 -2l13 -4l13 -5l13 -4l13 -2l14 -4l14 -2
l13 -1l13 -2l12 -1l14 -1h36l12 2h12l11 2l10 2l10 2l10 3l4 1l5 1l9 4l7 3l7 4l7 3l6 5l2 2l3 3l4 5l3 5l2 2v3l2 3l1 3v2l1 3l-1 5l-1 4l-2 4l-1 4l-2 4l-3 4l-3 3l-4 3l-8 7l-9 6l-8 6l-10 5l-21 10l-5 3l-2 1l-1 1l11 11l4 5l4 4l7 10l7 11l6 9l5 9l7 18l6 14l4 11l2 3
l1 3l2 2h1l1 -1l5 -10l5 -11l4 -5l3 -5l4 -7l5 -6l3 -4l3 -2l2 -2l2 -2l2 -1l4 -2l3 -1h3l3 1l2 1l4 1l2 3l3 2l3 4l2 2l2 4l2 4l2 5l2 4l3 9l2 11l1 12l1 7v19l-1 14zM932 261z" />
    <glyph glyph-name="uniE66B" unicode="&#xe66b;" 
d="M952 72q-2 62 -31.5 116.5t-77.5 91.5v230q0 99 -63 175t-158 96v5q0 45 -32 77.5t-78 32.5t-78 -32.5t-32 -77.5v-5q-95 -20 -158 -96t-63 -175v-230q-48 -37 -77.5 -91.5t-31.5 -116.5h109v-1h662v1h109v0zM489 -128h27q54 0 94 35.5t46 88.5h-288q7 -53 47 -88.5
t93 -35.5h-19zM489 -128z" />
    <glyph glyph-name="uniE66C" unicode="&#xe66c;" 
d="M863 854h-702q-22 0 -37.5 -15.5t-15.5 -37.5v-862q0 -10 7 -17t17 -7t18 8q92 100 119 115q10 -4 39 -50q10 -17 16.5 -26t16.5 -21t21 -17.5t23 -5.5q15 0 30.5 11t24.5 22.5t26 35.5q35 51 46 51q9 0 41 -50q15 -22 23.5 -33.5t23 -23t28.5 -12.5h3q15 0 31.5 11
t27 21.5t28.5 33.5q39 46 52 50q23 -19 92 -109q9 -12 24 -12q12 0 21 9t9 22v856q0 22 -15.5 37.5t-37.5 15.5zM733 297h-442q-13 0 -23 10t-10 23.5t10 23t23 9.5h442q13 0 23 -9.5t10 -23t-10 -23.5t-23 -10zM733 446h-442q-13 0 -23 9.5t-10 23t10 23.5t23 10h442
q13 0 23 -10t10 -23.5t-10 -23t-23 -9.5zM733 594h-442q-13 0 -23 9.5t-10 23.5t10 23.5t23 9.5h442q13 0 23 -9.5t10 -23.5t-10 -23.5t-23 -9.5z" />
    <glyph glyph-name="uniE66D" unicode="&#xe66d;" 
d="M586 811h-148q-16 0 -27 11t-11 26.5t11 26.5t27 11h148q16 0 27 -11t11 -26.5t-11 -26.5t-27 -11zM586 811zM869 595l41 41q11 11 11 26.5t-11 26.5t-26.5 11t-26.5 -11l-38 -38q-61 58 -140 90.5t-167 32.5q-91 0 -173.5 -35t-142 -95t-95 -142.5t-35.5 -173t35.5 -173
t95 -142.5t142 -95.5t173.5 -35.5t173.5 35.5t142 95t95 142.5t35.5 173q0 148 -89 267zM475 700q0 15 11 26t26 11t26 -11t11 -26v-37q0 -16 -11 -26.5t-26 -10.5t-26 10.5t-11 26.5v37zM178 291h-38q-15 0 -26 11t-11 26.5t11 26t26 10.5h38q15 0 26 -10.5t11 -26
t-11 -26.5t-26 -11zM549 -43q0 -16 -11 -27t-26 -11t-26 11t-11 27v37q0 15 11 26t26 11t26 -11t11 -26v-37zM721 448l-186 -149q-10 -8 -23 -8q-18 0 -29 14q-10 12 -8 27.5t14 24.5l186 149q12 10 27 8t24.5 -14t8 -27t-13.5 -25zM884 291h-37q-16 0 -27 11t-11 26.5
t11 26t27 10.5h37q15 0 26 -10.5t11 -26t-11 -26.5t-26 -11zM884 291z" />
    <glyph glyph-name="uniE66E" unicode="&#xe66e;" 
d="M512 896q-139 0 -257 -68.5t-186.5 -186.5t-68.5 -257t68.5 -257t186.5 -186.5t257 -68.5t257 68.5t186.5 186.5t68.5 257t-68.5 257t-186.5 186.5t-257 68.5zM434 170q-3 -8 -15.5 -21t-13.5 -21l4 -2q0 -1 1 -1v-1l4 -3l-12 -14l-10 8q-7 -2 -16.5 -16t-17.5 -19
q-12 -7 -25 -8.5t-17.5 -0.5t-18.5 6q1 3 0.5 12.5t0 14.5t4.5 12t13 12q13 8 43 8q-17 10 -33 22h-5q-7 -1 -16.5 -14t-17.5 -17q-12 -6 -24.5 -6.5t-16.5 0.5t-17 6q1 3 1 12.5t0.5 13.5t5 10.5t13.5 10.5q5 3 12 4.5t12 1.5h14h13q-20 18 -35 37q-6 -1 -16.5 -11.5
t-17.5 -13.5l-8 -2q-4 -1 -8 -1.5t-7 -0.5t-6.5 1t-5.5 1t-5.5 2t-4.5 2.5t-4.5 2.5t-4.5 2q1 2 2 11t2.5 13t6.5 9.5t13 8.5q6 2 12.5 2.5t11 0t13 -2t12.5 -1.5q-12 20 -22 39q-4 0 -13 -7t-15 -9q-3 -1 -6.5 -1.5t-6.5 0t-5 0.5t-4.5 1t-4 1.5t-4 2t-3.5 2t-3.5 2
t-3.5 2.5q1 2 3 8.5t3 9.5t5.5 6.5t10.5 5.5q12 1 13.5 1t12.5 -3t13 -3q-8 19 -13 38q-3 -1 -12.5 -7t-15.5 -7q-4 -1 -7 -1h-6q-3 0 -5 0.5t-5 1.5t-4 1.5t-3.5 2t-3.5 2t-3.5 2.5t-3.5 2q1 2 3 8.5t3.5 9.5t6 6.5t11.5 4.5q10 1 13 1t13 -3.5t14 -4.5q-5 23 -6 42
q-3 1 -10 -2.5t-11 -3.5q-14 1 -27 20q8 13 23 13q5 -1 9 -3.5t9 -6.5t10 -6q1 4 3 10.5t4.5 11t5.5 7.5q9 8 22 2q4 -16 -9 -28q-3 -2 -12.5 -5t-12.5 -5q3 -18 10 -41q1 3 1.5 9.5t1.5 10t2.5 8.5t4.5 9q8 10 16.5 11.5t16.5 -0.5q13 -22 -4 -44q-4 -5 -17 -11.5
t-16 -10.5q6 -18 15 -37q2 27 8 34q5 7 10.5 10.5t10 3t11.5 -0.5q14 -22 -2 -45q-4 -4 -15.5 -10.5t-13.5 -10.5q10 -21 24 -43q0 6 -0.5 18t0.5 19.5t5 15.5q6 10 13.5 14.5t10.5 5t16 1.5q7 -10 9.5 -24t-5.5 -34q-4 -7 -19 -17.5t-17 -17.5q15 -19 37 -38q0 6 -2.5 18
t-2.5 20.5t4 16.5q4 11 11.5 17t10.5 7t16 4q10 -9 14.5 -24t-1.5 -37q-3 -7 -16 -18.5t-14 -19.5q24 -17 51 -32q-1 9 -4 23t-3.5 20t2.5 21q4 12 11 18.5t10.5 7.5t16.5 5q11 -9 17.5 -26.5t-0.5 -36.5zM512 338l-92 -50q-7 -4 -14 -4q-10 0 -17 5q-15 11 -12 29l18 112
l-78 81q-12 13 -6.5 30t23.5 20l106 16l45 99q8 18 27 18t27 -18l45 -99l106 -16q18 -3 23.5 -20t-6.5 -30l-78 -81l18 -112q3 -18 -12 -29q-8 -5 -17 -5q-7 0 -14 4zM843 303q6 -2 10.5 -5.5t5.5 -6.5t3 -9.5t2 -8.5l-2 -2q-3 -2 -4 -2.5t-3.5 -2t-4 -2t-4 -1.5t-5 -1
t-5 -0.5t-6 0t-6.5 1.5q-6 2 -15 9t-14 7q-9 -19 -21 -39q4 0 12.5 1.5t13 2t11 0t12.5 -2.5q8 -3 13 -8.5t6.5 -9.5t2.5 -13t2 -11q-1 0 -4.5 -2t-4.5 -3l-5 -2q-4 -2 -5.5 -2t-5 -1t-6.5 -1t-7 0.5t-8 1.5l-8 2q-8 3 -18 13.5t-16 11.5q-15 -19 -35 -37h13h14
q5 0 11.5 -1.5t12.5 -4.5q9 -4 13 -10.5t5 -10.5t1 -13v-13l-4 -2q-5 -2 -6 -2t-5 -1.5t-6 -1.5t-6 -0.5t-7 0t-7 1.5t-8 2.5t-8 3.5q-8 4 -17.5 17t-16.5 14h-5q-16 -11 -33 -22q30 0 43 -8q9 -5 13 -12t4.5 -12t0 -14.5t-0.5 -12.5q0 -1 -4.5 -2t-6 -1.5t-6 -1.5t-6.5 -1
t-6 -0.5t-7 0.5t-7.5 2t-8.5 3l-8 4q-8 5 -17.5 19t-16.5 16l-10 -8l-12 14l4 3l-1 1q1 0 2 1l3 2q0 8 -13 21t-15 21q-7 19 -0.5 36.5t16.5 26.5q2 0 6 -1t5.5 -1.5t5 -1.5t4.5 -2t4 -3t4.5 -4t3.5 -4.5t3.5 -6t2.5 -7.5q3 -15 2.5 -21t-3.5 -20t-4 -23q27 15 50 32
q-1 8 -13.5 19.5t-15.5 18.5q-6 22 -1.5 37t13.5 24q2 -1 6 -1.5t5 -1t4.5 -1.5t5 -1.5t4 -2t4 -3.5t3.5 -4.5t4 -5.5l3 -7q3 -8 3.5 -16t-2 -20.5t-2.5 -18.5q22 19 37 38q-2 7 -17 17.5t-19 17.5q-8 20 -6 34t10 24q1 0 5 -0.5t5 -0.5t4.5 -0.5t5 -1t4 -1.5t4 -2.5t4 -3.5
t4.5 -5t3 -6q5 -8 6 -15.5t0.5 -19.5t-0.5 -18q13 22 24 43q-3 4 -14 10.5t-15 10.5q-16 23 -2 45q6 0 11 0.5t10.5 -3t10.5 -10.5q6 -7 8 -34q9 19 15 37q-3 5 -16 11t-17 11q-17 22 -4 44q8 2 16.5 0.5t15.5 -11.5q5 -5 6.5 -10.5t2.5 -14.5t1 -12q7 23 11 41
q-3 2 -12.5 5t-12.5 5q-13 12 -9 28q13 6 22 -2q3 -3 5.5 -7.5t4 -11t3.5 -10.5q4 2 9.5 6t9.5 6.5t9 3.5q15 0 23 -13q-14 -19 -27 -20q-4 0 -11 3.5t-10 2.5q-1 -19 -6 -42q4 1 14 4.5t13 3.5h13q7 -2 11.5 -5.5t6 -6.5t3.5 -9.5t2 -8.5l-3 -2q-2 -2 -3 -2.5t-3.5 -2
t-4 -2t-4 -1.5t-4.5 -1.5t-5 -0.5h-6q-3 0 -7 1q-6 1 -15.5 7t-12.5 7q-6 -19 -14 -38q3 0 14 3t12.5 3t13.5 -1z" />
    <glyph glyph-name="uniE66F" unicode="&#xe66f;" 
d="M512 896q-139 0 -257 -68.5t-186.5 -186.5t-68.5 -257t68.5 -257t186.5 -186.5t257 -68.5t257 68.5t186.5 186.5t68.5 257t-68.5 257t-186.5 186.5t-257 68.5zM715 255h-169v-108q0 -11 -9.5 -18.5t-21.5 -7.5t-21.5 7.5t-9.5 18.5v108h-175q-11 0 -19.5 9t-8.5 19.5
t8.5 19.5t19.5 9h175v95h-175q-11 0 -19.5 8.5t-8.5 19.5t8.5 20t19.5 9h128l-86 143q-1 8 3 19t14 16q25 13 41 -10l100 -168h8l101 168q6 9 17.5 12t21.5 -2t14.5 -17t2.5 -18l-86 -143h127q12 0 20.5 -9t8.5 -20t-8.5 -19.5t-20.5 -8.5h-169v-95h169q12 0 20.5 -9
t8.5 -19.5t-8.5 -19.5t-20.5 -9z" />
    <glyph glyph-name="uniE671" unicode="&#xe671;" 
d="M512 769q82 0 140.5 -58t58.5 -140.5t-58.5 -140.5t-140.5 -58t-140.5 58t-58.5 140.5t58.5 140.5t140.5 58zM512 806q-98 0 -166.5 -69t-68.5 -166.5t68.5 -166.5t166.5 -69t166.5 69t68.5 166.5t-68.5 166.5t-166.5 69zM902 -38q-8 0 -13 5.5t-5 13.5q0 111 -61.5 204
t-163.5 137q-7 3 -9.5 10t0.5 14t10 10t14 0q112 -49 179.5 -151t67.5 -224q0 -8 -5.5 -13.5t-13.5 -5.5zM122 -38q-8 0 -13.5 5.5t-5.5 13.5q0 153 88.5 266.5t228.5 141.5q7 1 13.5 -3t8 -11.5t-3 -14t-11.5 -8.5q-127 -24 -207 -128t-80 -243q0 -8 -5 -13.5t-13 -5.5z
" />
    <glyph glyph-name="uniE673" unicode="&#xe673;" 
d="M986 105l-183 137q-25 17 -48 17.5t-44 -17.5l-54 -54q-114 85 -197 168q-74 74 -148 173l56 55q18 21 17.5 44t-17.5 48l-137 182q-19 19 -45.5 19t-45.5 -19l-92 -91q-24 -24 -28.5 -55t3 -58.5t25.5 -69.5q5 -8 14.5 -23.5t40 -61t62.5 -89t79 -100t93 -102.5
q76 -76 170.5 -147.5t148.5 -105t55 -32.5q37 -19 66.5 -27t61 -2.5t55.5 29.5l92 91q20 20 21 47.5t-21 43.5z" />
  </font>
</defs>
</svg>
